<?xml version="1.0" encoding="utf-8" standalone="no"?>
<!DOCTYPE svg PUBLIC "-//W3C//DTD SVG 1.1//EN"
  "http://www.w3.org/Graphics/SVG/1.1/DTD/svg11.dtd">
<!-- Created with matplotlib (http://matplotlib.org/) -->
<svg height="345.6pt" version="1.1" viewBox="0 0 460.8 345.6" width="460.8pt" xmlns="http://www.w3.org/2000/svg" xmlns:xlink="http://www.w3.org/1999/xlink">
 <defs>
  <style type="text/css">
*{stroke-linecap:butt;stroke-linejoin:round;}
  </style>
 </defs>
 <g id="figure_1">
  <g id="patch_1">
   <path d="M 0 345.6 
L 460.8 345.6 
L 460.8 0 
L 0 0 
z
" style="fill:#ffffff;"/>
  </g>
  <g id="axes_1">
   <g id="patch_2">
    <path d="M 46.08 103.68 
L 414.72 103.68 
L 414.72 34.56 
L 46.08 34.56 
z
" style="fill:#f6f6f6;"/>
   </g>
   <g id="matplotlib.axis_1">
    <g id="xtick_1">
     <g id="line2d_1">
      <path clip-path="url(#p50b861e0d1)" d="M 88.917868 103.68 
L 88.917868 34.56 
" style="fill:none;stroke:#bfbfbf;stroke-linecap:square;stroke-width:0.5;"/>
     </g>
     <g id="line2d_2">
      <defs>
       <path d="M 0 0 
L 0 3.5 
" id="ma461cfc2d7" style="stroke:#000000;stroke-width:0.8;"/>
      </defs>
      <g>
       <use style="stroke:#000000;stroke-width:0.8;" x="88.917868" xlink:href="#ma461cfc2d7" y="103.68"/>
      </g>
     </g>
    </g>
    <g id="xtick_2">
     <g id="line2d_3">
      <path clip-path="url(#p50b861e0d1)" d="M 140.360678 103.68 
L 140.360678 34.56 
" style="fill:none;stroke:#bfbfbf;stroke-linecap:square;stroke-width:0.5;"/>
     </g>
     <g id="line2d_4">
      <g>
       <use style="stroke:#000000;stroke-width:0.8;" x="140.360678" xlink:href="#ma461cfc2d7" y="103.68"/>
      </g>
     </g>
    </g>
    <g id="xtick_3">
     <g id="line2d_5">
      <path clip-path="url(#p50b861e0d1)" d="M 191.803488 103.68 
L 191.803488 34.56 
" style="fill:none;stroke:#bfbfbf;stroke-linecap:square;stroke-width:0.5;"/>
     </g>
     <g id="line2d_6">
      <g>
       <use style="stroke:#000000;stroke-width:0.8;" x="191.803488" xlink:href="#ma461cfc2d7" y="103.68"/>
      </g>
     </g>
    </g>
    <g id="xtick_4">
     <g id="line2d_7">
      <path clip-path="url(#p50b861e0d1)" d="M 243.246299 103.68 
L 243.246299 34.56 
" style="fill:none;stroke:#bfbfbf;stroke-linecap:square;stroke-width:0.5;"/>
     </g>
     <g id="line2d_8">
      <g>
       <use style="stroke:#000000;stroke-width:0.8;" x="243.246299" xlink:href="#ma461cfc2d7" y="103.68"/>
      </g>
     </g>
    </g>
    <g id="xtick_5">
     <g id="line2d_9">
      <path clip-path="url(#p50b861e0d1)" d="M 294.689109 103.68 
L 294.689109 34.56 
" style="fill:none;stroke:#bfbfbf;stroke-linecap:square;stroke-width:0.5;"/>
     </g>
     <g id="line2d_10">
      <g>
       <use style="stroke:#000000;stroke-width:0.8;" x="294.689109" xlink:href="#ma461cfc2d7" y="103.68"/>
      </g>
     </g>
    </g>
    <g id="xtick_6">
     <g id="line2d_11">
      <path clip-path="url(#p50b861e0d1)" d="M 346.131919 103.68 
L 346.131919 34.56 
" style="fill:none;stroke:#bfbfbf;stroke-linecap:square;stroke-width:0.5;"/>
     </g>
     <g id="line2d_12">
      <g>
       <use style="stroke:#000000;stroke-width:0.8;" x="346.131919" xlink:href="#ma461cfc2d7" y="103.68"/>
      </g>
     </g>
    </g>
    <g id="xtick_7">
     <g id="line2d_13">
      <path clip-path="url(#p50b861e0d1)" d="M 397.574729 103.68 
L 397.574729 34.56 
" style="fill:none;stroke:#bfbfbf;stroke-linecap:square;stroke-width:0.5;"/>
     </g>
     <g id="line2d_14">
      <g>
       <use style="stroke:#000000;stroke-width:0.8;" x="397.574729" xlink:href="#ma461cfc2d7" y="103.68"/>
      </g>
     </g>
    </g>
    <g id="text_1">
     <!-- 1e9 -->
     <defs>
      <path d="M 12.40625 8.296875 
L 28.515625 8.296875 
L 28.515625 63.921875 
L 10.984375 60.40625 
L 10.984375 69.390625 
L 28.421875 72.90625 
L 38.28125 72.90625 
L 38.28125 8.296875 
L 54.390625 8.296875 
L 54.390625 0 
L 12.40625 0 
z
" id="DejaVuSans-31"/>
      <path d="M 56.203125 29.59375 
L 56.203125 25.203125 
L 14.890625 25.203125 
Q 15.484375 15.921875 20.484375 11.0625 
Q 25.484375 6.203125 34.421875 6.203125 
Q 39.59375 6.203125 44.453125 7.46875 
Q 49.3125 8.734375 54.109375 11.28125 
L 54.109375 2.78125 
Q 49.265625 0.734375 44.1875 -0.34375 
Q 39.109375 -1.421875 33.890625 -1.421875 
Q 20.796875 -1.421875 13.15625 6.1875 
Q 5.515625 13.8125 5.515625 26.8125 
Q 5.515625 40.234375 12.765625 48.109375 
Q 20.015625 56 32.328125 56 
Q 43.359375 56 49.78125 48.890625 
Q 56.203125 41.796875 56.203125 29.59375 
z
M 47.21875 32.234375 
Q 47.125 39.59375 43.09375 43.984375 
Q 39.0625 48.390625 32.421875 48.390625 
Q 24.90625 48.390625 20.390625 44.140625 
Q 15.875 39.890625 15.1875 32.171875 
z
" id="DejaVuSans-65"/>
      <path d="M 10.984375 1.515625 
L 10.984375 10.5 
Q 14.703125 8.734375 18.5 7.8125 
Q 22.3125 6.890625 25.984375 6.890625 
Q 35.75 6.890625 40.890625 13.453125 
Q 46.046875 20.015625 46.78125 33.40625 
Q 43.953125 29.203125 39.59375 26.953125 
Q 35.25 24.703125 29.984375 24.703125 
Q 19.046875 24.703125 12.671875 31.3125 
Q 6.296875 37.9375 6.296875 49.421875 
Q 6.296875 60.640625 12.9375 67.421875 
Q 19.578125 74.21875 30.609375 74.21875 
Q 43.265625 74.21875 49.921875 64.515625 
Q 56.59375 54.828125 56.59375 36.375 
Q 56.59375 19.140625 48.40625 8.859375 
Q 40.234375 -1.421875 26.421875 -1.421875 
Q 22.703125 -1.421875 18.890625 -0.6875 
Q 15.09375 0.046875 10.984375 1.515625 
z
M 30.609375 32.421875 
Q 37.25 32.421875 41.125 36.953125 
Q 45.015625 41.5 45.015625 49.421875 
Q 45.015625 57.28125 41.125 61.84375 
Q 37.25 66.40625 30.609375 66.40625 
Q 23.96875 66.40625 20.09375 61.84375 
Q 16.21875 57.28125 16.21875 49.421875 
Q 16.21875 41.5 20.09375 36.953125 
Q 23.96875 32.421875 30.609375 32.421875 
z
" id="DejaVuSans-39"/>
     </defs>
     <g transform="translate(395.841875 114.278437)scale(0.1 -0.1)">
      <use xlink:href="#DejaVuSans-31"/>
      <use x="63.623047" xlink:href="#DejaVuSans-65"/>
      <use x="125.146484" xlink:href="#DejaVuSans-39"/>
     </g>
    </g>
   </g>
   <g id="matplotlib.axis_2">
    <g id="ytick_1">
     <g id="line2d_15">
      <path clip-path="url(#p50b861e0d1)" d="M 46.08 82.944 
L 414.72 82.944 
" style="fill:none;stroke:#bfbfbf;stroke-linecap:square;stroke-width:0.5;"/>
     </g>
     <g id="line2d_16">
      <defs>
       <path d="M 0 0 
L -3.5 0 
" id="me897e9db0a" style="stroke:#000000;stroke-width:0.8;"/>
      </defs>
      <g>
       <use style="stroke:#000000;stroke-width:0.8;" x="46.08" xlink:href="#me897e9db0a" y="82.944"/>
      </g>
     </g>
     <g id="text_2">
      <!-- 30 -->
      <defs>
       <path d="M 40.578125 39.3125 
Q 47.65625 37.796875 51.625 33 
Q 55.609375 28.21875 55.609375 21.1875 
Q 55.609375 10.40625 48.1875 4.484375 
Q 40.765625 -1.421875 27.09375 -1.421875 
Q 22.515625 -1.421875 17.65625 -0.515625 
Q 12.796875 0.390625 7.625 2.203125 
L 7.625 11.71875 
Q 11.71875 9.328125 16.59375 8.109375 
Q 21.484375 6.890625 26.8125 6.890625 
Q 36.078125 6.890625 40.9375 10.546875 
Q 45.796875 14.203125 45.796875 21.1875 
Q 45.796875 27.640625 41.28125 31.265625 
Q 36.765625 34.90625 28.71875 34.90625 
L 20.21875 34.90625 
L 20.21875 43.015625 
L 29.109375 43.015625 
Q 36.375 43.015625 40.234375 45.921875 
Q 44.09375 48.828125 44.09375 54.296875 
Q 44.09375 59.90625 40.109375 62.90625 
Q 36.140625 65.921875 28.71875 65.921875 
Q 24.65625 65.921875 20.015625 65.03125 
Q 15.375 64.15625 9.8125 62.3125 
L 9.8125 71.09375 
Q 15.4375 72.65625 20.34375 73.4375 
Q 25.25 74.21875 29.59375 74.21875 
Q 40.828125 74.21875 47.359375 69.109375 
Q 53.90625 64.015625 53.90625 55.328125 
Q 53.90625 49.265625 50.4375 45.09375 
Q 46.96875 40.921875 40.578125 39.3125 
z
" id="DejaVuSans-33"/>
       <path d="M 31.78125 66.40625 
Q 24.171875 66.40625 20.328125 58.90625 
Q 16.5 51.421875 16.5 36.375 
Q 16.5 21.390625 20.328125 13.890625 
Q 24.171875 6.390625 31.78125 6.390625 
Q 39.453125 6.390625 43.28125 13.890625 
Q 47.125 21.390625 47.125 36.375 
Q 47.125 51.421875 43.28125 58.90625 
Q 39.453125 66.40625 31.78125 66.40625 
z
M 31.78125 74.21875 
Q 44.046875 74.21875 50.515625 64.515625 
Q 56.984375 54.828125 56.984375 36.375 
Q 56.984375 17.96875 50.515625 8.265625 
Q 44.046875 -1.421875 31.78125 -1.421875 
Q 19.53125 -1.421875 13.0625 8.265625 
Q 6.59375 17.96875 6.59375 36.375 
Q 6.59375 54.828125 13.0625 64.515625 
Q 19.53125 74.21875 31.78125 74.21875 
z
" id="DejaVuSans-30"/>
      </defs>
      <g transform="translate(26.355 86.743219)scale(0.1 -0.1)">
       <use xlink:href="#DejaVuSans-33"/>
       <use x="63.623047" xlink:href="#DejaVuSans-30"/>
      </g>
     </g>
    </g>
    <g id="ytick_2">
     <g id="line2d_17">
      <path clip-path="url(#p50b861e0d1)" d="M 46.08 55.296 
L 414.72 55.296 
" style="fill:none;stroke:#bfbfbf;stroke-linecap:square;stroke-width:0.5;"/>
     </g>
     <g id="line2d_18">
      <g>
       <use style="stroke:#000000;stroke-width:0.8;" x="46.08" xlink:href="#me897e9db0a" y="55.296"/>
      </g>
     </g>
     <g id="text_3">
      <!-- 70 -->
      <defs>
       <path d="M 8.203125 72.90625 
L 55.078125 72.90625 
L 55.078125 68.703125 
L 28.609375 0 
L 18.3125 0 
L 43.21875 64.59375 
L 8.203125 64.59375 
z
" id="DejaVuSans-37"/>
      </defs>
      <g transform="translate(26.355 59.095219)scale(0.1 -0.1)">
       <use xlink:href="#DejaVuSans-37"/>
       <use x="63.623047" xlink:href="#DejaVuSans-30"/>
      </g>
     </g>
    </g>
   </g>
   <g id="line2d_19">
    <path clip-path="url(#p50b861e0d1)" d="M 81.503931 72.579116 
L 82.392862 73.964218 
L 85.059658 80.746963 
L 85.948589 80.178705 
L 86.837521 60.239832 
L 87.726453 59.981188 
L 88.615385 53.078007 
L 91.28218 51.746457 
L 93.060043 50.564434 
L 93.948975 57.035913 
L 94.837907 58.017087 
L 97.504702 58.56076 
L 98.393634 57.456877 
L 99.282566 57.602555 
L 100.171497 59.645136 
L 101.060429 63.674424 
L 103.727224 66.213964 
L 104.616156 69.367811 
L 105.505088 66.591099 
L 106.39402 70.16647 
L 107.282952 75.6367 
L 109.949747 76.376116 
L 110.838679 77.536864 
L 111.72761 80.266531 
L 112.616542 82.023402 
L 113.505474 77.839814 
L 116.172269 74.343178 
L 117.950133 79.390938 
L 118.839064 79.390938 
L 119.727996 79.156745 
L 122.394791 79.551626 
L 123.283723 79.045382 
L 124.172655 78.189425 
L 125.061587 73.941242 
L 128.617314 71.676399 
L 129.506245 72.262046 
L 130.395177 71.672229 
L 131.284109 74.359475 
L 132.173041 73.811484 
L 134.839836 76.251713 
L 135.728768 74.926901 
L 136.6177 75.359918 
L 137.506631 74.315997 
L 138.395563 69.904767 
L 141.062358 72.649585 
L 141.95129 70.13683 
L 142.840222 71.407812 
L 143.729154 68.552085 
L 144.618085 66.519756 
L 147.284881 62.534579 
L 148.173812 61.591216 
L 149.062744 64.354387 
L 149.951676 60.482903 
L 150.840608 65.511514 
L 153.507403 71.36996 
L 154.396335 70.443188 
L 155.285266 73.039398 
L 156.174198 75.984262 
L 157.06313 75.029863 
L 160.618857 72.493826 
L 161.507789 71.046893 
L 162.396721 69.011034 
L 163.285652 65.826301 
L 165.952448 69.141077 
L 166.841379 60.153295 
L 167.730311 61.014832 
L 168.619243 59.676388 
L 169.508175 60.306579 
L 172.17497 58.943347 
L 173.063902 55.894996 
L 173.952833 58.064226 
L 174.841765 61.193321 
L 178.397492 67.564299 
L 179.286424 66.305798 
L 181.064287 65.360066 
L 181.953219 69.659814 
L 184.620014 66.543068 
L 185.508946 69.685506 
L 186.397878 68.104408 
L 188.175741 55.633298 
L 190.842537 54.631397 
L 191.731469 58.474443 
L 192.6204 58.560968 
L 193.509332 59.539068 
L 194.398264 64.095275 
L 197.065059 68.747627 
L 197.953991 71.956638 
L 198.842923 64.795459 
L 199.731854 67.625734 
L 200.620786 64.596765 
L 203.287581 58.799492 
L 204.176513 60.010775 
L 205.065445 63.26054 
L 206.843308 61.986499 
L 209.510104 61.952231 
L 210.399035 58.272425 
L 211.287967 59.954438 
L 212.176899 58.970086 
L 213.065831 56.056145 
L 215.732626 48.360381 
L 216.621558 48.352263 
L 217.51049 47.835044 
L 218.399421 47.474615 
L 219.288353 48.067652 
L 221.955148 47.781718 
L 222.84408 49.498382 
L 223.733012 51.719821 
L 224.621944 52.445431 
L 225.510875 51.311752 
L 228.177671 53.655216 
L 229.066602 50.45904 
L 229.955534 54.14861 
L 230.844466 52.505358 
L 231.733398 52.461648 
L 235.289125 52.706776 
L 236.178056 52.50498 
L 237.066988 52.809583 
L 237.95592 54.363832 
L 240.622715 54.21041 
L 241.511647 53.38045 
L 242.400579 53.34581 
L 243.28951 53.478488 
L 244.178442 53.972357 
L 246.845238 50.498631 
L 247.734169 56.692451 
L 248.623101 58.779311 
L 249.512033 58.731799 
L 249.512033 57.366636 
L 250.400965 60.94444 
L 253.06776 61.778687 
L 253.956692 64.264553 
L 254.845623 58.304694 
L 255.734555 64.333191 
L 256.623487 56.390885 
L 259.290282 50.935432 
L 260.179214 47.052207 
L 261.068146 50.18881 
L 261.957077 58.220193 
L 265.512804 57.142286 
L 266.401736 55.298139 
L 267.290668 59.345079 
L 268.1796 58.737294 
L 269.068531 63.957391 
L 271.735327 62.775327 
L 272.624259 67.328984 
L 273.51319 66.268341 
L 274.402122 62.134481 
L 275.291054 63.958998 
L 277.957849 63.093306 
L 279.735713 64.364502 
L 280.624644 65.671187 
L 281.513576 64.586331 
L 284.180371 68.522427 
L 285.069303 72.450021 
L 285.958235 70.755273 
L 286.847167 63.099027 
L 287.736098 61.78446 
L 290.402894 61.697356 
L 291.291825 63.193802 
L 292.180757 61.920997 
L 293.069689 62.796899 
L 296.625416 63.796354 
L 297.514348 61.948031 
L 298.403279 69.208111 
L 299.292211 70.112901 
L 300.181143 71.255711 
L 302.847938 71.229088 
L 303.73687 68.932911 
L 304.625802 68.41226 
L 305.514734 69.895976 
L 306.403665 73.584014 
L 309.959392 75.930859 
L 310.848324 74.56725 
L 311.737256 74.634199 
L 312.626188 76.938842 
L 315.292983 75.903385 
L 316.181915 66.180204 
L 317.070846 69.022657 
L 321.515505 67.731885 
L 322.404437 65.020845 
L 323.293369 68.204683 
L 324.1823 65.708951 
L 325.071232 65.418931 
L 327.738027 62.653247 
L 328.626959 63.178086 
L 329.515891 65.049937 
L 330.404823 63.061191 
L 331.293755 61.663271 
L 333.96055 60.907773 
L 334.849482 61.790222 
L 335.738413 62.944204 
L 336.627345 58.513253 
L 337.516277 59.471478 
L 340.183072 60.2222 
L 341.072004 56.440249 
L 341.960936 55.976223 
L 342.849867 53.615261 
L 343.738799 58.686227 
L 346.405594 55.493827 
L 348.183458 57.173619 
L 349.07239 69.980916 
L 349.961321 70.302394 
L 352.628117 70.359447 
L 353.517048 71.240249 
L 354.40598 70.191521 
L 355.294912 70.225294 
L 356.183844 68.475628 
L 358.850639 66.238268 
L 359.739571 65.077425 
L 360.628503 64.216861 
L 361.517434 64.830355 
L 362.406366 61.891305 
L 365.073161 71.172536 
L 365.962093 65.302881 
L 366.851025 67.644505 
L 367.739957 65.52097 
L 368.628888 61.691489 
L 371.295684 60.238955 
L 372.184615 57.99437 
L 373.073547 58.632499 
L 373.962479 62.43506 
L 374.851411 68.029717 
L 377.518206 66.453076 
L 378.407138 77.664965 
L 379.296069 77.385101 
L 380.185001 77.832168 
L 381.073933 77.151871 
L 383.740728 77.959088 
L 384.62966 73.720891 
L 385.518592 74.844517 
L 386.407524 74.089138 
L 387.296455 70.98019 
L 389.963251 71.934296 
L 390.852182 75.07969 
L 391.741114 70.162525 
L 392.630046 71.129962 
L 393.518978 68.264298 
L 396.185773 66.843523 
L 397.074705 66.10535 
L 397.963636 65.67627 
L 397.963636 65.67627 
" style="fill:none;stroke:#ff0000;stroke-linecap:square;"/>
   </g>
   <g id="line2d_20">
    <path clip-path="url(#p50b861e0d1)" d="M 46.08 55.296 
L 414.72 55.296 
" style="fill:none;stroke:#ffc0cb;stroke-linecap:square;"/>
   </g>
   <g id="line2d_21">
    <path clip-path="url(#p50b861e0d1)" d="M 46.08 82.944 
L 414.72 82.944 
" style="fill:none;stroke:#90ee90;stroke-linecap:square;"/>
   </g>
   <g id="patch_3">
    <path d="M 46.08 103.68 
L 46.08 34.56 
" style="fill:none;stroke:#000000;stroke-linecap:square;stroke-linejoin:miter;stroke-width:0.8;"/>
   </g>
   <g id="patch_4">
    <path d="M 414.72 103.68 
L 414.72 34.56 
" style="fill:none;stroke:#000000;stroke-linecap:square;stroke-linejoin:miter;stroke-width:0.8;"/>
   </g>
   <g id="patch_5">
    <path d="M 46.08 103.68 
L 414.72 103.68 
" style="fill:none;stroke:#000000;stroke-linecap:square;stroke-linejoin:miter;stroke-width:0.8;"/>
   </g>
   <g id="patch_6">
    <path d="M 46.08 34.56 
L 414.72 34.56 
" style="fill:none;stroke:#000000;stroke-linecap:square;stroke-linejoin:miter;stroke-width:0.8;"/>
   </g>
   <g id="text_4">
    <!-- &gt;70 = overbought -->
    <defs>
     <path d="M 10.59375 49.21875 
L 10.59375 58.109375 
L 73.1875 35.40625 
L 73.1875 27.296875 
L 10.59375 4.59375 
L 10.59375 13.484375 
L 60.890625 31.296875 
z
" id="DejaVuSans-3e"/>
     <path id="DejaVuSans-20"/>
     <path d="M 10.59375 45.40625 
L 73.1875 45.40625 
L 73.1875 37.203125 
L 10.59375 37.203125 
z
M 10.59375 25.484375 
L 73.1875 25.484375 
L 73.1875 17.1875 
L 10.59375 17.1875 
z
" id="DejaVuSans-3d"/>
     <path d="M 30.609375 48.390625 
Q 23.390625 48.390625 19.1875 42.75 
Q 14.984375 37.109375 14.984375 27.296875 
Q 14.984375 17.484375 19.15625 11.84375 
Q 23.34375 6.203125 30.609375 6.203125 
Q 37.796875 6.203125 41.984375 11.859375 
Q 46.1875 17.53125 46.1875 27.296875 
Q 46.1875 37.015625 41.984375 42.703125 
Q 37.796875 48.390625 30.609375 48.390625 
z
M 30.609375 56 
Q 42.328125 56 49.015625 48.375 
Q 55.71875 40.765625 55.71875 27.296875 
Q 55.71875 13.875 49.015625 6.21875 
Q 42.328125 -1.421875 30.609375 -1.421875 
Q 18.84375 -1.421875 12.171875 6.21875 
Q 5.515625 13.875 5.515625 27.296875 
Q 5.515625 40.765625 12.171875 48.375 
Q 18.84375 56 30.609375 56 
z
" id="DejaVuSans-6f"/>
     <path d="M 2.984375 54.6875 
L 12.5 54.6875 
L 29.59375 8.796875 
L 46.6875 54.6875 
L 56.203125 54.6875 
L 35.6875 0 
L 23.484375 0 
z
" id="DejaVuSans-76"/>
     <path d="M 41.109375 46.296875 
Q 39.59375 47.171875 37.8125 47.578125 
Q 36.03125 48 33.890625 48 
Q 26.265625 48 22.1875 43.046875 
Q 18.109375 38.09375 18.109375 28.8125 
L 18.109375 0 
L 9.078125 0 
L 9.078125 54.6875 
L 18.109375 54.6875 
L 18.109375 46.1875 
Q 20.953125 51.171875 25.484375 53.578125 
Q 30.03125 56 36.53125 56 
Q 37.453125 56 38.578125 55.875 
Q 39.703125 55.765625 41.0625 55.515625 
z
" id="DejaVuSans-72"/>
     <path d="M 48.6875 27.296875 
Q 48.6875 37.203125 44.609375 42.84375 
Q 40.53125 48.484375 33.40625 48.484375 
Q 26.265625 48.484375 22.1875 42.84375 
Q 18.109375 37.203125 18.109375 27.296875 
Q 18.109375 17.390625 22.1875 11.75 
Q 26.265625 6.109375 33.40625 6.109375 
Q 40.53125 6.109375 44.609375 11.75 
Q 48.6875 17.390625 48.6875 27.296875 
z
M 18.109375 46.390625 
Q 20.953125 51.265625 25.265625 53.625 
Q 29.59375 56 35.59375 56 
Q 45.5625 56 51.78125 48.09375 
Q 58.015625 40.1875 58.015625 27.296875 
Q 58.015625 14.40625 51.78125 6.484375 
Q 45.5625 -1.421875 35.59375 -1.421875 
Q 29.59375 -1.421875 25.265625 0.953125 
Q 20.953125 3.328125 18.109375 8.203125 
L 18.109375 0 
L 9.078125 0 
L 9.078125 75.984375 
L 18.109375 75.984375 
z
" id="DejaVuSans-62"/>
     <path d="M 8.5 21.578125 
L 8.5 54.6875 
L 17.484375 54.6875 
L 17.484375 21.921875 
Q 17.484375 14.15625 20.5 10.265625 
Q 23.53125 6.390625 29.59375 6.390625 
Q 36.859375 6.390625 41.078125 11.03125 
Q 45.3125 15.671875 45.3125 23.6875 
L 45.3125 54.6875 
L 54.296875 54.6875 
L 54.296875 0 
L 45.3125 0 
L 45.3125 8.40625 
Q 42.046875 3.421875 37.71875 1 
Q 33.40625 -1.421875 27.6875 -1.421875 
Q 18.265625 -1.421875 13.375 4.4375 
Q 8.5 10.296875 8.5 21.578125 
z
M 31.109375 56 
z
" id="DejaVuSans-75"/>
     <path d="M 45.40625 27.984375 
Q 45.40625 37.75 41.375 43.109375 
Q 37.359375 48.484375 30.078125 48.484375 
Q 22.859375 48.484375 18.828125 43.109375 
Q 14.796875 37.75 14.796875 27.984375 
Q 14.796875 18.265625 18.828125 12.890625 
Q 22.859375 7.515625 30.078125 7.515625 
Q 37.359375 7.515625 41.375 12.890625 
Q 45.40625 18.265625 45.40625 27.984375 
z
M 54.390625 6.78125 
Q 54.390625 -7.171875 48.1875 -13.984375 
Q 42 -20.796875 29.203125 -20.796875 
Q 24.46875 -20.796875 20.265625 -20.09375 
Q 16.0625 -19.390625 12.109375 -17.921875 
L 12.109375 -9.1875 
Q 16.0625 -11.328125 19.921875 -12.34375 
Q 23.78125 -13.375 27.78125 -13.375 
Q 36.625 -13.375 41.015625 -8.765625 
Q 45.40625 -4.15625 45.40625 5.171875 
L 45.40625 9.625 
Q 42.625 4.78125 38.28125 2.390625 
Q 33.9375 0 27.875 0 
Q 17.828125 0 11.671875 7.65625 
Q 5.515625 15.328125 5.515625 27.984375 
Q 5.515625 40.671875 11.671875 48.328125 
Q 17.828125 56 27.875 56 
Q 33.9375 56 38.28125 53.609375 
Q 42.625 51.21875 45.40625 46.390625 
L 45.40625 54.6875 
L 54.390625 54.6875 
z
" id="DejaVuSans-67"/>
     <path d="M 54.890625 33.015625 
L 54.890625 0 
L 45.90625 0 
L 45.90625 32.71875 
Q 45.90625 40.484375 42.875 44.328125 
Q 39.84375 48.1875 33.796875 48.1875 
Q 26.515625 48.1875 22.3125 43.546875 
Q 18.109375 38.921875 18.109375 30.90625 
L 18.109375 0 
L 9.078125 0 
L 9.078125 75.984375 
L 18.109375 75.984375 
L 18.109375 46.1875 
Q 21.34375 51.125 25.703125 53.5625 
Q 30.078125 56 35.796875 56 
Q 45.21875 56 50.046875 50.171875 
Q 54.890625 44.34375 54.890625 33.015625 
z
" id="DejaVuSans-68"/>
     <path d="M 18.3125 70.21875 
L 18.3125 54.6875 
L 36.8125 54.6875 
L 36.8125 47.703125 
L 18.3125 47.703125 
L 18.3125 18.015625 
Q 18.3125 11.328125 20.140625 9.421875 
Q 21.96875 7.515625 27.59375 7.515625 
L 36.8125 7.515625 
L 36.8125 0 
L 27.59375 0 
Q 17.1875 0 13.234375 3.875 
Q 9.28125 7.765625 9.28125 18.015625 
L 9.28125 47.703125 
L 2.6875 47.703125 
L 2.6875 54.6875 
L 9.28125 54.6875 
L 9.28125 70.21875 
z
" id="DejaVuSans-74"/>
    </defs>
    <g transform="translate(267.264 48.310594)scale(0.09 -0.09)">
     <use xlink:href="#DejaVuSans-3e"/>
     <use x="83.789062" xlink:href="#DejaVuSans-37"/>
     <use x="147.412109" xlink:href="#DejaVuSans-30"/>
     <use x="211.035156" xlink:href="#DejaVuSans-20"/>
     <use x="242.822266" xlink:href="#DejaVuSans-3d"/>
     <use x="326.611328" xlink:href="#DejaVuSans-20"/>
     <use x="358.398438" xlink:href="#DejaVuSans-6f"/>
     <use x="419.580078" xlink:href="#DejaVuSans-76"/>
     <use x="478.759766" xlink:href="#DejaVuSans-65"/>
     <use x="540.283203" xlink:href="#DejaVuSans-72"/>
     <use x="581.396484" xlink:href="#DejaVuSans-62"/>
     <use x="644.873047" xlink:href="#DejaVuSans-6f"/>
     <use x="706.054688" xlink:href="#DejaVuSans-75"/>
     <use x="769.433594" xlink:href="#DejaVuSans-67"/>
     <use x="832.910156" xlink:href="#DejaVuSans-68"/>
     <use x="896.289062" xlink:href="#DejaVuSans-74"/>
    </g>
   </g>
   <g id="text_5">
    <!-- &lt;30 = oversold -->
    <defs>
     <path d="M 73.1875 49.21875 
L 22.796875 31.296875 
L 73.1875 13.484375 
L 73.1875 4.59375 
L 10.59375 27.296875 
L 10.59375 35.40625 
L 73.1875 58.109375 
z
" id="DejaVuSans-3c"/>
     <path d="M 44.28125 53.078125 
L 44.28125 44.578125 
Q 40.484375 46.53125 36.375 47.5 
Q 32.28125 48.484375 27.875 48.484375 
Q 21.1875 48.484375 17.84375 46.4375 
Q 14.5 44.390625 14.5 40.28125 
Q 14.5 37.15625 16.890625 35.375 
Q 19.28125 33.59375 26.515625 31.984375 
L 29.59375 31.296875 
Q 39.15625 29.25 43.1875 25.515625 
Q 47.21875 21.78125 47.21875 15.09375 
Q 47.21875 7.46875 41.1875 3.015625 
Q 35.15625 -1.421875 24.609375 -1.421875 
Q 20.21875 -1.421875 15.453125 -0.5625 
Q 10.6875 0.296875 5.421875 2 
L 5.421875 11.28125 
Q 10.40625 8.6875 15.234375 7.390625 
Q 20.0625 6.109375 24.8125 6.109375 
Q 31.15625 6.109375 34.5625 8.28125 
Q 37.984375 10.453125 37.984375 14.40625 
Q 37.984375 18.0625 35.515625 20.015625 
Q 33.0625 21.96875 24.703125 23.78125 
L 21.578125 24.515625 
Q 13.234375 26.265625 9.515625 29.90625 
Q 5.8125 33.546875 5.8125 39.890625 
Q 5.8125 47.609375 11.28125 51.796875 
Q 16.75 56 26.8125 56 
Q 31.78125 56 36.171875 55.265625 
Q 40.578125 54.546875 44.28125 53.078125 
z
" id="DejaVuSans-73"/>
     <path d="M 9.421875 75.984375 
L 18.40625 75.984375 
L 18.40625 0 
L 9.421875 0 
z
" id="DejaVuSans-6c"/>
     <path d="M 45.40625 46.390625 
L 45.40625 75.984375 
L 54.390625 75.984375 
L 54.390625 0 
L 45.40625 0 
L 45.40625 8.203125 
Q 42.578125 3.328125 38.25 0.953125 
Q 33.9375 -1.421875 27.875 -1.421875 
Q 17.96875 -1.421875 11.734375 6.484375 
Q 5.515625 14.40625 5.515625 27.296875 
Q 5.515625 40.1875 11.734375 48.09375 
Q 17.96875 56 27.875 56 
Q 33.9375 56 38.25 53.625 
Q 42.578125 51.265625 45.40625 46.390625 
z
M 14.796875 27.296875 
Q 14.796875 17.390625 18.875 11.75 
Q 22.953125 6.109375 30.078125 6.109375 
Q 37.203125 6.109375 41.296875 11.75 
Q 45.40625 17.390625 45.40625 27.296875 
Q 45.40625 37.203125 41.296875 42.84375 
Q 37.203125 48.484375 30.078125 48.484375 
Q 22.953125 48.484375 18.875 42.84375 
Q 14.796875 37.203125 14.796875 27.296875 
z
" id="DejaVuSans-64"/>
    </defs>
    <g transform="translate(267.264 96.768)scale(0.09 -0.09)">
     <use xlink:href="#DejaVuSans-3c"/>
     <use x="83.789062" xlink:href="#DejaVuSans-33"/>
     <use x="147.412109" xlink:href="#DejaVuSans-30"/>
     <use x="211.035156" xlink:href="#DejaVuSans-20"/>
     <use x="242.822266" xlink:href="#DejaVuSans-3d"/>
     <use x="326.611328" xlink:href="#DejaVuSans-20"/>
     <use x="358.398438" xlink:href="#DejaVuSans-6f"/>
     <use x="419.580078" xlink:href="#DejaVuSans-76"/>
     <use x="478.759766" xlink:href="#DejaVuSans-65"/>
     <use x="540.283203" xlink:href="#DejaVuSans-72"/>
     <use x="581.396484" xlink:href="#DejaVuSans-73"/>
     <use x="633.496094" xlink:href="#DejaVuSans-6f"/>
     <use x="694.677734" xlink:href="#DejaVuSans-6c"/>
     <use x="722.460938" xlink:href="#DejaVuSans-64"/>
    </g>
   </g>
   <g id="text_6">
    <!-- RSI (14) -->
    <defs>
     <path d="M 44.390625 34.1875 
Q 47.5625 33.109375 50.5625 29.59375 
Q 53.5625 26.078125 56.59375 19.921875 
L 66.609375 0 
L 56 0 
L 46.6875 18.703125 
Q 43.0625 26.03125 39.671875 28.421875 
Q 36.28125 30.8125 30.421875 30.8125 
L 19.671875 30.8125 
L 19.671875 0 
L 9.8125 0 
L 9.8125 72.90625 
L 32.078125 72.90625 
Q 44.578125 72.90625 50.734375 67.671875 
Q 56.890625 62.453125 56.890625 51.90625 
Q 56.890625 45.015625 53.6875 40.46875 
Q 50.484375 35.9375 44.390625 34.1875 
z
M 19.671875 64.796875 
L 19.671875 38.921875 
L 32.078125 38.921875 
Q 39.203125 38.921875 42.84375 42.21875 
Q 46.484375 45.515625 46.484375 51.90625 
Q 46.484375 58.296875 42.84375 61.546875 
Q 39.203125 64.796875 32.078125 64.796875 
z
" id="DejaVuSans-52"/>
     <path d="M 53.515625 70.515625 
L 53.515625 60.890625 
Q 47.90625 63.578125 42.921875 64.890625 
Q 37.9375 66.21875 33.296875 66.21875 
Q 25.25 66.21875 20.875 63.09375 
Q 16.5 59.96875 16.5 54.203125 
Q 16.5 49.359375 19.40625 46.890625 
Q 22.3125 44.4375 30.421875 42.921875 
L 36.375 41.703125 
Q 47.40625 39.59375 52.65625 34.296875 
Q 57.90625 29 57.90625 20.125 
Q 57.90625 9.515625 50.796875 4.046875 
Q 43.703125 -1.421875 29.984375 -1.421875 
Q 24.8125 -1.421875 18.96875 -0.25 
Q 13.140625 0.921875 6.890625 3.21875 
L 6.890625 13.375 
Q 12.890625 10.015625 18.65625 8.296875 
Q 24.421875 6.59375 29.984375 6.59375 
Q 38.421875 6.59375 43.015625 9.90625 
Q 47.609375 13.234375 47.609375 19.390625 
Q 47.609375 24.75 44.3125 27.78125 
Q 41.015625 30.8125 33.5 32.328125 
L 27.484375 33.5 
Q 16.453125 35.6875 11.515625 40.375 
Q 6.59375 45.0625 6.59375 53.421875 
Q 6.59375 63.09375 13.40625 68.65625 
Q 20.21875 74.21875 32.171875 74.21875 
Q 37.3125 74.21875 42.625 73.28125 
Q 47.953125 72.359375 53.515625 70.515625 
z
" id="DejaVuSans-53"/>
     <path d="M 9.8125 72.90625 
L 19.671875 72.90625 
L 19.671875 0 
L 9.8125 0 
z
" id="DejaVuSans-49"/>
     <path d="M 31 75.875 
Q 24.46875 64.65625 21.28125 53.65625 
Q 18.109375 42.671875 18.109375 31.390625 
Q 18.109375 20.125 21.3125 9.0625 
Q 24.515625 -2 31 -13.1875 
L 23.1875 -13.1875 
Q 15.875 -1.703125 12.234375 9.375 
Q 8.59375 20.453125 8.59375 31.390625 
Q 8.59375 42.28125 12.203125 53.3125 
Q 15.828125 64.359375 23.1875 75.875 
z
" id="DejaVuSans-28"/>
     <path d="M 37.796875 64.3125 
L 12.890625 25.390625 
L 37.796875 25.390625 
z
M 35.203125 72.90625 
L 47.609375 72.90625 
L 47.609375 25.390625 
L 58.015625 25.390625 
L 58.015625 17.1875 
L 47.609375 17.1875 
L 47.609375 0 
L 37.796875 0 
L 37.796875 17.1875 
L 4.890625 17.1875 
L 4.890625 26.703125 
z
" id="DejaVuSans-34"/>
     <path d="M 8.015625 75.875 
L 15.828125 75.875 
Q 23.140625 64.359375 26.78125 53.3125 
Q 30.421875 42.28125 30.421875 31.390625 
Q 30.421875 20.453125 26.78125 9.375 
Q 23.140625 -1.703125 15.828125 -13.1875 
L 8.015625 -13.1875 
Q 14.5 -2 17.703125 9.0625 
Q 20.90625 20.125 20.90625 31.390625 
Q 20.90625 42.671875 17.703125 53.65625 
Q 14.5 64.65625 8.015625 75.875 
z
" id="DejaVuSans-29"/>
    </defs>
    <g transform="translate(55.296 44.854594)scale(0.09 -0.09)">
     <use xlink:href="#DejaVuSans-52"/>
     <use x="69.482422" xlink:href="#DejaVuSans-53"/>
     <use x="132.958984" xlink:href="#DejaVuSans-49"/>
     <use x="162.451172" xlink:href="#DejaVuSans-20"/>
     <use x="194.238281" xlink:href="#DejaVuSans-28"/>
     <use x="233.251953" xlink:href="#DejaVuSans-31"/>
     <use x="296.875" xlink:href="#DejaVuSans-34"/>
     <use x="360.498047" xlink:href="#DejaVuSans-29"/>
    </g>
   </g>
   <g id="text_7">
    <!-- BRAD Graph -->
    <defs>
     <path d="M 19.671875 34.8125 
L 19.671875 8.109375 
L 35.5 8.109375 
Q 43.453125 8.109375 47.28125 11.40625 
Q 51.125 14.703125 51.125 21.484375 
Q 51.125 28.328125 47.28125 31.5625 
Q 43.453125 34.8125 35.5 34.8125 
z
M 19.671875 64.796875 
L 19.671875 42.828125 
L 34.28125 42.828125 
Q 41.5 42.828125 45.03125 45.53125 
Q 48.578125 48.25 48.578125 53.8125 
Q 48.578125 59.328125 45.03125 62.0625 
Q 41.5 64.796875 34.28125 64.796875 
z
M 9.8125 72.90625 
L 35.015625 72.90625 
Q 46.296875 72.90625 52.390625 68.21875 
Q 58.5 63.53125 58.5 54.890625 
Q 58.5 48.1875 55.375 44.234375 
Q 52.25 40.28125 46.1875 39.3125 
Q 53.46875 37.75 57.5 32.78125 
Q 61.53125 27.828125 61.53125 20.40625 
Q 61.53125 10.640625 54.890625 5.3125 
Q 48.25 0 35.984375 0 
L 9.8125 0 
z
" id="DejaVuSans-42"/>
     <path d="M 34.1875 63.1875 
L 20.796875 26.90625 
L 47.609375 26.90625 
z
M 28.609375 72.90625 
L 39.796875 72.90625 
L 67.578125 0 
L 57.328125 0 
L 50.6875 18.703125 
L 17.828125 18.703125 
L 11.1875 0 
L 0.78125 0 
z
" id="DejaVuSans-41"/>
     <path d="M 19.671875 64.796875 
L 19.671875 8.109375 
L 31.59375 8.109375 
Q 46.6875 8.109375 53.6875 14.9375 
Q 60.6875 21.78125 60.6875 36.53125 
Q 60.6875 51.171875 53.6875 57.984375 
Q 46.6875 64.796875 31.59375 64.796875 
z
M 9.8125 72.90625 
L 30.078125 72.90625 
Q 51.265625 72.90625 61.171875 64.09375 
Q 71.09375 55.28125 71.09375 36.53125 
Q 71.09375 17.671875 61.125 8.828125 
Q 51.171875 0 30.078125 0 
L 9.8125 0 
z
" id="DejaVuSans-44"/>
     <path d="M 59.515625 10.40625 
L 59.515625 29.984375 
L 43.40625 29.984375 
L 43.40625 38.09375 
L 69.28125 38.09375 
L 69.28125 6.78125 
Q 63.578125 2.734375 56.6875 0.65625 
Q 49.8125 -1.421875 42 -1.421875 
Q 24.90625 -1.421875 15.25 8.5625 
Q 5.609375 18.5625 5.609375 36.375 
Q 5.609375 54.25 15.25 64.234375 
Q 24.90625 74.21875 42 74.21875 
Q 49.125 74.21875 55.546875 72.453125 
Q 61.96875 70.703125 67.390625 67.28125 
L 67.390625 56.78125 
Q 61.921875 61.421875 55.765625 63.765625 
Q 49.609375 66.109375 42.828125 66.109375 
Q 29.4375 66.109375 22.71875 58.640625 
Q 16.015625 51.171875 16.015625 36.375 
Q 16.015625 21.625 22.71875 14.15625 
Q 29.4375 6.6875 42.828125 6.6875 
Q 48.046875 6.6875 52.140625 7.59375 
Q 56.25 8.5 59.515625 10.40625 
z
" id="DejaVuSans-47"/>
     <path d="M 34.28125 27.484375 
Q 23.390625 27.484375 19.1875 25 
Q 14.984375 22.515625 14.984375 16.5 
Q 14.984375 11.71875 18.140625 8.90625 
Q 21.296875 6.109375 26.703125 6.109375 
Q 34.1875 6.109375 38.703125 11.40625 
Q 43.21875 16.703125 43.21875 25.484375 
L 43.21875 27.484375 
z
M 52.203125 31.203125 
L 52.203125 0 
L 43.21875 0 
L 43.21875 8.296875 
Q 40.140625 3.328125 35.546875 0.953125 
Q 30.953125 -1.421875 24.3125 -1.421875 
Q 15.921875 -1.421875 10.953125 3.296875 
Q 6 8.015625 6 15.921875 
Q 6 25.140625 12.171875 29.828125 
Q 18.359375 34.515625 30.609375 34.515625 
L 43.21875 34.515625 
L 43.21875 35.40625 
Q 43.21875 41.609375 39.140625 45 
Q 35.0625 48.390625 27.6875 48.390625 
Q 23 48.390625 18.546875 47.265625 
Q 14.109375 46.140625 10.015625 43.890625 
L 10.015625 52.203125 
Q 14.9375 54.109375 19.578125 55.046875 
Q 24.21875 56 28.609375 56 
Q 40.484375 56 46.34375 49.84375 
Q 52.203125 43.703125 52.203125 31.203125 
z
" id="DejaVuSans-61"/>
     <path d="M 18.109375 8.203125 
L 18.109375 -20.796875 
L 9.078125 -20.796875 
L 9.078125 54.6875 
L 18.109375 54.6875 
L 18.109375 46.390625 
Q 20.953125 51.265625 25.265625 53.625 
Q 29.59375 56 35.59375 56 
Q 45.5625 56 51.78125 48.09375 
Q 58.015625 40.1875 58.015625 27.296875 
Q 58.015625 14.40625 51.78125 6.484375 
Q 45.5625 -1.421875 35.59375 -1.421875 
Q 29.59375 -1.421875 25.265625 0.953125 
Q 20.953125 3.328125 18.109375 8.203125 
z
M 48.6875 27.296875 
Q 48.6875 37.203125 44.609375 42.84375 
Q 40.53125 48.484375 33.40625 48.484375 
Q 26.265625 48.484375 22.1875 42.84375 
Q 18.109375 37.203125 18.109375 27.296875 
Q 18.109375 17.390625 22.1875 11.75 
Q 26.265625 6.109375 33.40625 6.109375 
Q 40.53125 6.109375 44.609375 11.75 
Q 48.6875 17.390625 48.6875 27.296875 
z
" id="DejaVuSans-70"/>
    </defs>
    <g transform="translate(193.082813 28.56)scale(0.12 -0.12)">
     <use xlink:href="#DejaVuSans-42"/>
     <use x="68.603516" xlink:href="#DejaVuSans-52"/>
     <use x="138.023438" xlink:href="#DejaVuSans-41"/>
     <use x="206.431641" xlink:href="#DejaVuSans-44"/>
     <use x="283.433594" xlink:href="#DejaVuSans-20"/>
     <use x="315.220703" xlink:href="#DejaVuSans-47"/>
     <use x="392.710938" xlink:href="#DejaVuSans-72"/>
     <use x="433.824219" xlink:href="#DejaVuSans-61"/>
     <use x="495.103516" xlink:href="#DejaVuSans-70"/>
     <use x="558.580078" xlink:href="#DejaVuSans-68"/>
    </g>
   </g>
  </g>
  <g id="axes_2">
   <g id="patch_7">
    <path d="M 46.08 241.92 
L 414.72 241.92 
L 414.72 103.68 
L 46.08 103.68 
z
" style="fill:#f6f6f6;"/>
   </g>
   <g id="matplotlib.axis_3">
    <g id="xtick_8">
     <g id="line2d_22">
      <path clip-path="url(#p416db437f5)" d="M 88.917868 241.92 
L 88.917868 103.68 
" style="fill:none;stroke:#bfbfbf;stroke-linecap:square;stroke-width:0.5;"/>
     </g>
     <g id="line2d_23">
      <g>
       <use style="stroke:#000000;stroke-width:0.8;" x="88.917868" xlink:href="#ma461cfc2d7" y="241.92"/>
      </g>
     </g>
    </g>
    <g id="xtick_9">
     <g id="line2d_24">
      <path clip-path="url(#p416db437f5)" d="M 140.360678 241.92 
L 140.360678 103.68 
" style="fill:none;stroke:#bfbfbf;stroke-linecap:square;stroke-width:0.5;"/>
     </g>
     <g id="line2d_25">
      <g>
       <use style="stroke:#000000;stroke-width:0.8;" x="140.360678" xlink:href="#ma461cfc2d7" y="241.92"/>
      </g>
     </g>
    </g>
    <g id="xtick_10">
     <g id="line2d_26">
      <path clip-path="url(#p416db437f5)" d="M 191.803488 241.92 
L 191.803488 103.68 
" style="fill:none;stroke:#bfbfbf;stroke-linecap:square;stroke-width:0.5;"/>
     </g>
     <g id="line2d_27">
      <g>
       <use style="stroke:#000000;stroke-width:0.8;" x="191.803488" xlink:href="#ma461cfc2d7" y="241.92"/>
      </g>
     </g>
    </g>
    <g id="xtick_11">
     <g id="line2d_28">
      <path clip-path="url(#p416db437f5)" d="M 243.246299 241.92 
L 243.246299 103.68 
" style="fill:none;stroke:#bfbfbf;stroke-linecap:square;stroke-width:0.5;"/>
     </g>
     <g id="line2d_29">
      <g>
       <use style="stroke:#000000;stroke-width:0.8;" x="243.246299" xlink:href="#ma461cfc2d7" y="241.92"/>
      </g>
     </g>
    </g>
    <g id="xtick_12">
     <g id="line2d_30">
      <path clip-path="url(#p416db437f5)" d="M 294.689109 241.92 
L 294.689109 103.68 
" style="fill:none;stroke:#bfbfbf;stroke-linecap:square;stroke-width:0.5;"/>
     </g>
     <g id="line2d_31">
      <g>
       <use style="stroke:#000000;stroke-width:0.8;" x="294.689109" xlink:href="#ma461cfc2d7" y="241.92"/>
      </g>
     </g>
    </g>
    <g id="xtick_13">
     <g id="line2d_32">
      <path clip-path="url(#p416db437f5)" d="M 346.131919 241.92 
L 346.131919 103.68 
" style="fill:none;stroke:#bfbfbf;stroke-linecap:square;stroke-width:0.5;"/>
     </g>
     <g id="line2d_33">
      <g>
       <use style="stroke:#000000;stroke-width:0.8;" x="346.131919" xlink:href="#ma461cfc2d7" y="241.92"/>
      </g>
     </g>
    </g>
    <g id="xtick_14">
     <g id="line2d_34">
      <path clip-path="url(#p416db437f5)" d="M 397.574729 241.92 
L 397.574729 103.68 
" style="fill:none;stroke:#bfbfbf;stroke-linecap:square;stroke-width:0.5;"/>
     </g>
     <g id="line2d_35">
      <g>
       <use style="stroke:#000000;stroke-width:0.8;" x="397.574729" xlink:href="#ma461cfc2d7" y="241.92"/>
      </g>
     </g>
    </g>
    <g id="text_8">
     <!-- 1e9 -->
     <g transform="translate(395.841875 252.518437)scale(0.1 -0.1)">
      <use xlink:href="#DejaVuSans-31"/>
      <use x="63.623047" xlink:href="#DejaVuSans-65"/>
      <use x="125.146484" xlink:href="#DejaVuSans-39"/>
     </g>
    </g>
   </g>
   <g id="matplotlib.axis_4">
    <g id="ytick_3">
     <g id="line2d_36">
      <path clip-path="url(#p416db437f5)" d="M 46.08 234.413506 
L 414.72 234.413506 
" style="fill:none;stroke:#bfbfbf;stroke-linecap:square;stroke-width:0.5;"/>
     </g>
     <g id="line2d_37">
      <g>
       <use style="stroke:#000000;stroke-width:0.8;" x="46.08" xlink:href="#me897e9db0a" y="234.413506"/>
      </g>
     </g>
     <g id="text_9">
      <!-- 300 -->
      <g transform="translate(19.9925 238.212724)scale(0.1 -0.1)">
       <use xlink:href="#DejaVuSans-33"/>
       <use x="63.623047" xlink:href="#DejaVuSans-30"/>
       <use x="127.246094" xlink:href="#DejaVuSans-30"/>
      </g>
     </g>
    </g>
    <g id="ytick_4">
     <g id="line2d_38">
      <path clip-path="url(#p416db437f5)" d="M 46.08 203.039716 
L 414.72 203.039716 
" style="fill:none;stroke:#bfbfbf;stroke-linecap:square;stroke-width:0.5;"/>
     </g>
     <g id="line2d_39">
      <g>
       <use style="stroke:#000000;stroke-width:0.8;" x="46.08" xlink:href="#me897e9db0a" y="203.039716"/>
      </g>
     </g>
     <g id="text_10">
      <!-- 400 -->
      <g transform="translate(19.9925 206.838935)scale(0.1 -0.1)">
       <use xlink:href="#DejaVuSans-34"/>
       <use x="63.623047" xlink:href="#DejaVuSans-30"/>
       <use x="127.246094" xlink:href="#DejaVuSans-30"/>
      </g>
     </g>
    </g>
    <g id="ytick_5">
     <g id="line2d_40">
      <path clip-path="url(#p416db437f5)" d="M 46.08 171.665926 
L 414.72 171.665926 
" style="fill:none;stroke:#bfbfbf;stroke-linecap:square;stroke-width:0.5;"/>
     </g>
     <g id="line2d_41">
      <g>
       <use style="stroke:#000000;stroke-width:0.8;" x="46.08" xlink:href="#me897e9db0a" y="171.665926"/>
      </g>
     </g>
     <g id="text_11">
      <!-- 500 -->
      <defs>
       <path d="M 10.796875 72.90625 
L 49.515625 72.90625 
L 49.515625 64.59375 
L 19.828125 64.59375 
L 19.828125 46.734375 
Q 21.96875 47.46875 24.109375 47.828125 
Q 26.265625 48.1875 28.421875 48.1875 
Q 40.625 48.1875 47.75 41.5 
Q 54.890625 34.8125 54.890625 23.390625 
Q 54.890625 11.625 47.5625 5.09375 
Q 40.234375 -1.421875 26.90625 -1.421875 
Q 22.3125 -1.421875 17.546875 -0.640625 
Q 12.796875 0.140625 7.71875 1.703125 
L 7.71875 11.625 
Q 12.109375 9.234375 16.796875 8.0625 
Q 21.484375 6.890625 26.703125 6.890625 
Q 35.15625 6.890625 40.078125 11.328125 
Q 45.015625 15.765625 45.015625 23.390625 
Q 45.015625 31 40.078125 35.4375 
Q 35.15625 39.890625 26.703125 39.890625 
Q 22.75 39.890625 18.8125 39.015625 
Q 14.890625 38.140625 10.796875 36.28125 
z
" id="DejaVuSans-35"/>
      </defs>
      <g transform="translate(19.9925 175.465145)scale(0.1 -0.1)">
       <use xlink:href="#DejaVuSans-35"/>
       <use x="63.623047" xlink:href="#DejaVuSans-30"/>
       <use x="127.246094" xlink:href="#DejaVuSans-30"/>
      </g>
     </g>
    </g>
    <g id="ytick_6">
     <g id="line2d_42">
      <path clip-path="url(#p416db437f5)" d="M 46.08 140.292137 
L 414.72 140.292137 
" style="fill:none;stroke:#bfbfbf;stroke-linecap:square;stroke-width:0.5;"/>
     </g>
     <g id="line2d_43">
      <g>
       <use style="stroke:#000000;stroke-width:0.8;" x="46.08" xlink:href="#me897e9db0a" y="140.292137"/>
      </g>
     </g>
     <g id="text_12">
      <!-- 600 -->
      <defs>
       <path d="M 33.015625 40.375 
Q 26.375 40.375 22.484375 35.828125 
Q 18.609375 31.296875 18.609375 23.390625 
Q 18.609375 15.53125 22.484375 10.953125 
Q 26.375 6.390625 33.015625 6.390625 
Q 39.65625 6.390625 43.53125 10.953125 
Q 47.40625 15.53125 47.40625 23.390625 
Q 47.40625 31.296875 43.53125 35.828125 
Q 39.65625 40.375 33.015625 40.375 
z
M 52.59375 71.296875 
L 52.59375 62.3125 
Q 48.875 64.0625 45.09375 64.984375 
Q 41.3125 65.921875 37.59375 65.921875 
Q 27.828125 65.921875 22.671875 59.328125 
Q 17.53125 52.734375 16.796875 39.40625 
Q 19.671875 43.65625 24.015625 45.921875 
Q 28.375 48.1875 33.59375 48.1875 
Q 44.578125 48.1875 50.953125 41.515625 
Q 57.328125 34.859375 57.328125 23.390625 
Q 57.328125 12.15625 50.6875 5.359375 
Q 44.046875 -1.421875 33.015625 -1.421875 
Q 20.359375 -1.421875 13.671875 8.265625 
Q 6.984375 17.96875 6.984375 36.375 
Q 6.984375 53.65625 15.1875 63.9375 
Q 23.390625 74.21875 37.203125 74.21875 
Q 40.921875 74.21875 44.703125 73.484375 
Q 48.484375 72.75 52.59375 71.296875 
z
" id="DejaVuSans-36"/>
      </defs>
      <g transform="translate(19.9925 144.091355)scale(0.1 -0.1)">
       <use xlink:href="#DejaVuSans-36"/>
       <use x="63.623047" xlink:href="#DejaVuSans-30"/>
       <use x="127.246094" xlink:href="#DejaVuSans-30"/>
      </g>
     </g>
    </g>
    <g id="ytick_7">
     <g id="line2d_44">
      <path clip-path="url(#p416db437f5)" d="M 46.08 108.918347 
L 414.72 108.918347 
" style="fill:none;stroke:#bfbfbf;stroke-linecap:square;stroke-width:0.5;"/>
     </g>
     <g id="line2d_45">
      <g>
       <use style="stroke:#000000;stroke-width:0.8;" x="46.08" xlink:href="#me897e9db0a" y="108.918347"/>
      </g>
     </g>
     <g id="text_13">
      <!-- 700 -->
      <g transform="translate(19.9925 112.717566)scale(0.1 -0.1)">
       <use xlink:href="#DejaVuSans-37"/>
       <use x="63.623047" xlink:href="#DejaVuSans-30"/>
       <use x="127.246094" xlink:href="#DejaVuSans-30"/>
      </g>
     </g>
    </g>
   </g>
   <g id="line2d_46">
    <path clip-path="url(#p416db437f5)" d="M 62.836364 220.358048 
L 63.725295 222.146354 
L 66.392091 224.907247 
L 67.281022 223.495427 
L 68.169954 222.632648 
L 69.058886 224.342519 
L 69.947818 225.34648 
L 73.503545 227.213221 
L 74.392476 225.628844 
L 75.281408 224.326832 
L 76.17034 224.671944 
L 78.837135 224.593509 
L 79.726067 223.856225 
L 80.614999 222.005172 
L 81.503931 222.099293 
L 82.392862 222.852264 
L 85.059658 227.495585 
L 85.948589 227.260282 
L 86.837521 213.471501 
L 87.726453 213.17345 
L 88.615385 202.929908 
L 91.28218 200.216075 
L 93.060043 197.721859 
L 93.948975 202.223997 
L 94.837907 202.961281 
L 97.504702 203.353454 
L 98.393634 201.878886 
L 99.282566 201.973007 
L 100.171497 203.259332 
L 101.060429 205.973165 
L 103.727224 207.839906 
L 104.616156 210.349809 
L 105.505088 207.949714 
L 106.39402 210.930224 
L 107.282952 216.530445 
L 109.949747 217.393225 
L 110.838679 218.742298 
L 111.72761 222.177728 
L 112.616542 224.656257 
L 113.505474 221.691434 
L 116.172269 218.946227 
L 117.950133 225.503349 
L 118.839064 225.503349 
L 119.727996 225.330793 
L 122.394791 225.832774 
L 123.283723 225.503349 
L 124.172655 224.969995 
L 125.061587 222.193415 
L 128.617314 220.577664 
L 129.506245 221.063958 
L 130.395177 220.671786 
L 131.284109 222.805203 
L 132.173041 222.475779 
L 134.839836 224.452327 
L 135.728768 223.715043 
L 136.6177 224.044468 
L 137.506631 223.511114 
L 138.395563 221.095332 
L 141.062358 222.883638 
L 141.95129 221.440444 
L 142.840222 222.240475 
L 143.729154 220.593351 
L 144.618085 219.3384 
L 147.284881 216.561819 
L 148.173812 215.840222 
L 149.062744 217.236356 
L 149.951676 214.28722 
L 150.840608 217.0638 
L 153.507403 221.079645 
L 154.396335 220.452169 
L 155.285266 222.413031 
L 156.174198 224.89156 
L 157.06313 224.326832 
L 160.618857 222.805203 
L 161.507789 221.91105 
L 162.396721 220.624725 
L 163.285652 218.444247 
L 165.952448 220.546291 
L 166.841379 212.71853 
L 167.730311 213.283258 
L 168.619243 211.871438 
L 169.508175 212.247923 
L 172.17497 210.883163 
L 173.063902 207.46342 
L 173.952833 208.671311 
L 174.841765 210.490991 
L 178.397492 214.836261 
L 179.286424 213.769552 
L 181.064287 213.000894 
L 181.953219 215.918657 
L 184.620014 213.565622 
L 185.508946 215.840222 
L 186.397878 214.663705 
L 187.28681 209.220353 
L 188.175741 200.937672 
L 190.842537 199.274861 
L 191.731469 202.035755 
L 192.6204 202.098502 
L 193.509332 202.773039 
L 194.398264 206.09866 
L 197.065059 210.083132 
L 197.953991 213.267571 
L 198.842923 205.64374 
L 199.731854 208.545816 
L 200.620786 204.812335 
L 203.287581 195.760997 
L 204.176513 196.968888 
L 205.065445 200.310196 
L 206.843308 198.443456 
L 209.510104 198.396395 
L 210.399035 192.968729 
L 211.287967 194.411924 
L 212.176899 192.953043 
L 213.065831 188.2156 
L 215.732626 167.665768 
L 216.621558 167.634394 
L 217.51049 165.704906 
L 218.399421 164.37152 
L 219.288353 164.857814 
L 221.955148 163.932287 
L 222.84408 165.218613 
L 223.733012 166.881423 
L 224.621944 167.414778 
L 225.510875 165.014683 
L 228.177671 166.661807 
L 229.066602 159.790947 
L 229.955534 162.630275 
L 230.844466 159.147784 
L 231.733398 159.053663 
L 235.289125 159.226219 
L 236.178056 158.849733 
L 237.066988 159.037976 
L 237.95592 159.963503 
L 240.622715 159.743886 
L 241.511647 158.583056 
L 243.28951 158.598743 
L 244.178442 158.818359 
L 246.845238 154.300534 
L 247.734169 157.390852 
L 248.623101 158.535995 
L 249.512033 158.488935 
L 249.512033 157.155549 
L 250.400965 158.990915 
L 253.06776 159.430148 
L 253.956692 160.747848 
L 254.845623 155.571172 
L 255.734555 159.241906 
L 256.623487 149.908203 
L 259.290282 139.084246 
L 260.179214 126.581791 
L 261.068146 129.452492 
L 261.957077 137.954789 
L 265.512804 135.444886 
L 266.401736 130.895687 
L 267.290668 135.617442 
L 268.1796 134.299743 
L 269.068531 140.856865 
L 271.735327 138.6607 
L 272.624259 145.013892 
L 273.51319 143.241273 
L 274.402122 135.617442 
L 275.291054 138.111658 
L 277.957849 136.511595 
L 279.735713 138.143032 
L 280.624644 139.805843 
L 281.513576 138.127345 
L 284.180371 143.131465 
L 285.069303 148.935616 
L 285.958235 146.676703 
L 286.847167 134.095813 
L 287.736098 131.429041 
L 290.402894 131.256485 
L 291.291825 133.107539 
L 292.180757 130.864313 
L 293.069689 131.868274 
L 296.625416 132.982044 
L 297.514348 130.127029 
L 298.403279 138.958751 
L 299.292211 140.229389 
L 300.181143 141.813766 
L 302.847938 141.782392 
L 303.73687 139.099933 
L 304.625802 138.488144 
L 305.514734 140.135268 
L 306.403665 144.590346 
L 309.959392 147.727725 
L 310.848324 146.519834 
L 311.737256 146.598268 
L 312.626188 149.327788 
L 315.292983 148.527757 
L 316.181915 139.178367 
L 317.070846 142.205938 
L 321.515505 140.762744 
L 322.404437 137.578304 
L 323.293369 140.825491 
L 324.1823 137.892042 
L 325.071232 137.54693 
L 327.738027 134.158561 
L 328.626959 134.613481 
L 329.515891 136.213544 
L 330.404823 133.970318 
L 331.293755 132.323194 
L 333.96055 131.429041 
L 334.849482 132.056517 
L 335.738413 132.856549 
L 336.627345 127.868116 
L 337.516277 128.511279 
L 340.183072 128.997572 
L 341.072004 124.401312 
L 341.960936 123.773836 
L 342.849867 120.36978 
L 343.738799 123.601281 
L 346.405594 119.083455 
L 348.183458 120.228598 
L 349.07239 131.821214 
L 349.961321 132.197699 
L 352.628117 132.260447 
L 353.517048 133.185973 
L 354.40598 132.229073 
L 355.294912 132.260447 
L 356.183844 130.770192 
L 358.850639 128.777956 
L 359.739571 127.711247 
L 360.628503 126.926902 
L 361.517434 127.334762 
L 362.406366 124.71505 
L 365.073161 131.868274 
L 365.962093 126.158245 
L 366.851025 128.307349 
L 367.739957 126.064123 
L 368.628888 121.48355 
L 371.295684 119.538375 
L 372.184615 116.306875 
L 373.073547 116.793168 
L 373.962479 119.773678 
L 374.851411 124.91898 
L 377.518206 123.177734 
L 378.407138 137.970476 
L 379.296069 137.672425 
L 380.185001 138.409709 
L 381.073933 137.766547 
L 383.740728 138.958751 
L 384.62966 135.02134 
L 385.518592 136.480221 
L 386.407524 135.789998 
L 387.296455 132.872235 
L 389.963251 133.907571 
L 390.852182 137.531243 
L 391.741114 132.840862 
L 392.630046 133.907571 
L 393.518978 130.989808 
L 396.185773 129.468179 
L 397.074705 128.683835 
L 397.963636 128.244602 
L 397.963636 128.244602 
" style="fill:none;stroke:#ff0000;stroke-linecap:square;"/>
   </g>
   <g id="line2d_47">
    <path clip-path="url(#p416db437f5)" d="M 68.169954 219.701268 
L 69.058886 221.450625 
L 69.947818 222.190844 
L 73.503545 221.438369 
L 74.392476 222.006838 
L 75.281408 223.253293 
L 76.17034 223.433919 
L 78.837135 223.168696 
L 79.726067 223.452591 
L 80.614999 221.920782 
L 81.503931 221.099577 
L 82.392862 221.068904 
L 85.059658 219.604428 
L 85.948589 219.348821 
L 86.837521 212.464358 
L 87.726453 208.118413 
L 88.615385 198.095926 
L 91.28218 192.314549 
L 92.171112 193.11055 
L 93.060043 191.471094 
L 93.948975 196.503698 
L 97.504702 196.494339 
L 98.393634 197.585032 
L 99.282566 201.319349 
L 100.171497 201.417194 
L 101.060429 200.33054 
L 103.727224 199.483897 
L 104.616156 199.815277 
L 106.39402 204.987262 
L 107.282952 204.401036 
L 109.949747 205.260724 
L 110.838679 206.016629 
L 112.616542 213.781944 
L 113.505474 215.769523 
L 116.172269 216.8379 
L 117.950133 217.946441 
L 118.839064 218.115511 
L 119.727996 218.078544 
L 122.394791 218.93622 
L 123.283723 225.208074 
L 124.172655 224.86633 
L 125.061587 222.133881 
L 128.617314 219.681112 
L 129.506245 218.82995 
L 130.395177 218.613059 
L 131.284109 219.695128 
L 134.839836 219.596059 
L 135.728768 220.262927 
L 136.6177 222.006886 
L 137.506631 222.312757 
L 138.395563 221.007521 
L 141.062358 220.953774 
L 141.95129 220.29621 
L 142.840222 220.449961 
L 143.729154 220.016366 
L 144.618085 218.80778 
L 147.284881 216.065073 
L 148.173812 214.094344 
L 149.062744 214.359203 
L 149.951676 213.328046 
L 150.840608 214.055129 
L 153.507403 212.597562 
L 154.396335 213.064897 
L 155.285266 213.124585 
L 157.06313 219.146964 
L 160.618857 219.852388 
L 161.507789 220.981562 
L 162.396721 219.792215 
L 163.285652 217.633195 
L 165.952448 217.916326 
L 166.841379 212.327825 
L 167.730311 210.202736 
L 168.619243 208.452079 
L 169.508175 207.651435 
L 172.17497 210.57935 
L 173.063902 207.155968 
L 173.952833 206.509775 
L 174.841765 206.573548 
L 178.397492 205.448258 
L 179.286424 205.34958 
L 181.953219 212.053285 
L 185.508946 211.800898 
L 186.397878 212.24697 
L 187.28681 208.908834 
L 188.175741 199.974226 
L 190.842537 194.323775 
L 191.731469 193.59862 
L 192.6204 195.892608 
L 193.509332 198.973755 
L 194.398264 198.093271 
L 197.065059 198.390153 
L 197.953991 198.313148 
L 198.842923 200.215824 
L 199.731854 203.149013 
L 200.620786 202.33923 
L 203.287581 194.120532 
L 204.176513 192.240071 
L 205.065445 191.677352 
L 205.954377 193.163041 
L 206.843308 194.905301 
L 209.510104 196.471995 
L 210.399035 192.773466 
L 212.176899 190.445926 
L 213.065831 186.862202 
L 215.732626 167.223103 
L 216.621558 158.103849 
L 217.51049 153.09185 
L 218.399421 153.045868 
L 219.288353 163.29317 
L 221.955148 162.686132 
L 222.84408 163.573644 
L 223.733012 163.026683 
L 225.510875 163.137028 
L 228.177671 164.337931 
L 229.066602 159.556277 
L 229.955534 158.723232 
L 230.844466 156.843832 
L 231.733398 155.636185 
L 235.289125 157.260085 
L 236.178056 156.92169 
L 237.066988 158.810054 
L 237.95592 158.451343 
L 240.622715 158.518823 
L 241.511647 158.17659 
L 243.28951 157.821487 
L 244.178442 157.947012 
L 246.845238 154.295065 
L 247.734169 154.150978 
L 249.512033 154.155803 
L 249.512033 154.090446 
L 250.400965 156.690002 
L 253.06776 156.993723 
L 253.956692 156.61384 
L 254.845623 154.749083 
L 255.734555 155.34987 
L 256.623487 149.115443 
L 259.290282 137.193958 
L 260.179214 122.293537 
L 261.068146 116.246151 
L 261.957077 120.187367 
L 265.512804 123.952821 
L 266.401736 123.85027 
L 267.290668 127.511915 
L 268.1796 130.236282 
L 269.068531 129.015214 
L 271.735327 129.153035 
L 272.624259 131.237106 
L 273.51319 132.941513 
L 274.402122 134.039898 
L 275.291054 133.193395 
L 277.957849 132.208693 
L 279.735713 133.04351 
L 280.624644 134.735447 
L 281.513576 136.056108 
L 284.180371 134.644701 
L 285.069303 133.461335 
L 285.958235 135.228611 
L 287.736098 127.028933 
L 290.402894 123.048317 
L 291.291825 123.753885 
L 292.180757 129.672864 
L 293.069689 130.161668 
L 296.625416 130.215783 
L 297.514348 129.459969 
L 298.403279 126.661194 
L 299.292211 126.807905 
L 300.181143 127.848384 
L 302.847938 129.863128 
L 303.73687 137.89434 
L 304.625802 137.567516 
L 305.514734 137.546169 
L 306.403665 136.43682 
L 309.070461 135.241334 
L 309.959392 136.253176 
L 310.848324 139.73359 
L 311.737256 144.40245 
L 312.626188 145.298498 
L 315.292983 145.561442 
L 316.181915 138.840302 
L 317.070846 137.406851 
L 321.515505 135.714022 
L 322.404437 134.109402 
L 323.293369 136.934211 
L 324.1823 136.238567 
L 325.071232 135.852713 
L 327.738027 133.373127 
L 328.626959 132.149463 
L 329.515891 133.078824 
L 330.404823 132.554588 
L 331.293755 131.759964 
L 334.849482 129.74744 
L 335.738413 130.815943 
L 336.627345 127.747319 
L 337.516277 126.573286 
L 340.183072 126.044191 
L 341.072004 123.129032 
L 341.960936 122.349697 
L 342.849867 118.798991 
L 343.738799 118.696035 
L 348.183458 117.587256 
L 349.07239 113.720921 
L 349.961321 114.167989 
L 352.628117 114.907268 
L 353.517048 120.187138 
L 354.40598 131.433923 
L 355.294912 131.666057 
L 356.183844 130.590129 
L 358.850639 128.361976 
L 359.739571 126.684637 
L 360.628503 125.35454 
L 361.517434 125.548285 
L 362.406366 124.415574 
L 365.962093 122.588623 
L 366.851025 122.846745 
L 367.739957 122.416877 
L 368.628888 120.01319 
L 371.295684 117.784749 
L 372.184615 113.647089 
L 373.073547 112.932086 
L 373.962479 114.887029 
L 374.851411 113.337007 
L 377.518206 113.377626 
L 378.407138 109.963636 
L 379.296069 113.447054 
L 380.185001 118.690675 
L 381.073933 123.166832 
L 383.740728 137.205334 
L 384.62966 134.856003 
L 385.518592 134.490249 
L 386.407524 133.991916 
L 387.296455 131.863134 
L 389.963251 132.22755 
L 390.852182 131.917072 
L 391.741114 130.947854 
L 392.630046 130.761943 
L 393.518978 129.568686 
L 396.185773 127.442477 
L 397.074705 127.238972 
L 397.963636 126.158995 
L 397.963636 126.158995 
" style="fill:none;stroke:#000000;stroke-linecap:square;stroke-width:0.5;"/>
   </g>
   <g id="line2d_48">
    <path clip-path="url(#p416db437f5)" d="M 68.169954 222.707945 
L 69.058886 223.504839 
L 69.947818 224.144864 
L 73.503545 224.606059 
L 75.281408 225.371579 
L 76.17034 225.437464 
L 78.837135 225.28687 
L 80.614999 223.890737 
L 82.392862 223.081293 
L 85.059658 223.661708 
L 85.948589 224.342519 
L 87.726453 220.850616 
L 88.615385 216.866145 
L 91.28218 211.410243 
L 92.171112 205.747274 
L 93.060043 202.597346 
L 93.948975 200.407455 
L 94.837907 200.41373 
L 97.504702 201.041206 
L 98.393634 201.627895 
L 99.282566 202.478125 
L 100.171497 202.685192 
L 101.060429 203.287569 
L 103.727224 204.184859 
L 104.616156 205.879044 
L 105.505088 207.074385 
L 106.39402 208.608564 
L 107.282952 210.72002 
L 109.949747 212.630683 
L 110.838679 214.309181 
L 112.616542 219.89999 
L 113.505474 220.932188 
L 116.172269 221.242789 
L 118.839064 223.260123 
L 119.727996 223.395031 
L 122.394791 224.223299 
L 123.283723 225.534723 
L 124.172655 225.428052 
L 125.061587 224.766065 
L 128.617314 223.815439 
L 130.395177 221.895364 
L 131.284109 221.462405 
L 132.173041 221.518878 
L 134.839836 222.293811 
L 135.728768 222.824028 
L 136.6177 223.498564 
L 137.506631 223.639746 
L 138.395563 223.363657 
L 141.062358 223.049919 
L 144.618085 221.299262 
L 147.284881 220.034898 
L 149.951676 216.652803 
L 150.840608 216.197883 
L 153.507403 217.101448 
L 155.285266 219.059173 
L 156.174198 221.180041 
L 157.06313 222.632648 
L 160.618857 222.977759 
L 161.507789 223.269535 
L 162.396721 222.911874 
L 163.285652 221.622412 
L 165.952448 220.866303 
L 166.841379 218.848969 
L 168.619243 215.372753 
L 169.508175 214.133488 
L 172.17497 212.200863 
L 173.952833 210.227451 
L 174.841765 209.951362 
L 178.397492 210.469029 
L 179.286424 211.046307 
L 180.175356 212.229099 
L 181.064287 213.095016 
L 181.953219 214.180549 
L 184.620014 213.926421 
L 185.508946 214.340555 
L 186.397878 214.59782 
L 187.28681 213.841712 
L 188.175741 210.845515 
L 190.842537 207.987363 
L 192.6204 202.713429 
L 193.509332 201.423966 
L 194.398264 202.456163 
L 197.065059 204.617818 
L 197.953991 206.864181 
L 198.842923 207.573229 
L 199.731854 208.727784 
L 200.620786 208.470519 
L 203.287581 205.606092 
L 204.176513 202.346355 
L 205.065445 201.279646 
L 205.954377 199.441142 
L 206.843308 198.167366 
L 209.510104 198.694446 
L 210.399035 197.894414 
L 212.176899 195.434709 
L 215.732626 187.243013 
L 216.621558 182.176146 
L 218.399421 170.718438 
L 219.288353 166.046881 
L 221.955148 165.300184 
L 222.84408 164.817028 
L 223.733012 165.052331 
L 224.621944 165.660983 
L 225.510875 165.692357 
L 228.177671 166.238261 
L 229.066602 165.152728 
L 229.955534 164.302498 
L 230.844466 162.649099 
L 231.733398 161.456895 
L 235.289125 159.969778 
L 236.178056 159.781535 
L 237.066988 159.063075 
L 237.95592 159.226219 
L 240.622715 159.364263 
L 244.178442 158.856008 
L 246.845238 157.767338 
L 247.734169 157.528897 
L 249.512033 157.506935 
L 249.512033 157.174373 
L 250.400965 158.112449 
L 253.06776 158.520308 
L 253.956692 158.962679 
L 254.845623 158.379126 
L 255.734555 158.796398 
L 256.623487 156.979855 
L 259.290282 152.910675 
L 260.179214 146.077464 
L 261.068146 140.853728 
L 261.957077 136.596304 
L 265.512804 133.703641 
L 266.401736 132.065929 
L 267.290668 133.873059 
L 268.1796 134.842509 
L 269.068531 135.422925 
L 271.735327 136.066087 
L 272.624259 138.889728 
L 273.51319 140.414495 
L 274.402122 140.678034 
L 275.291054 140.128993 
L 277.957849 139.699172 
L 280.624644 137.637914 
L 281.513576 138.139895 
L 284.180371 139.143856 
L 285.069303 141.62866 
L 285.958235 143.335394 
L 286.847167 142.193388 
L 287.736098 140.853728 
L 290.402894 138.478732 
L 292.180757 132.150638 
L 293.069689 131.705131 
L 296.625416 132.015731 
L 297.514348 131.78984 
L 298.403279 132.960082 
L 300.181143 136.822196 
L 302.847938 138.582265 
L 303.73687 140.376846 
L 305.514734 140.2639 
L 306.403665 140.819216 
L 309.070461 141.83259 
L 310.848324 145.164486 
L 311.737256 146.457086 
L 312.626188 147.404575 
L 315.292983 147.740274 
L 316.181915 146.030403 
L 317.070846 145.167624 
L 321.515505 144.000519 
L 322.404437 141.650622 
L 323.293369 140.110169 
L 324.1823 139.852904 
L 325.071232 138.921102 
L 327.738027 137.600266 
L 328.626959 137.007301 
L 331.293755 134.25582 
L 333.96055 133.709916 
L 334.849482 133.198523 
L 335.738413 132.527124 
L 336.627345 131.306683 
L 337.516277 130.5443 
L 340.183072 130.058007 
L 341.072004 128.526966 
L 341.960936 126.710423 
L 342.849867 125.210756 
L 343.738799 124.228756 
L 346.405594 122.245933 
L 348.183458 121.41139 
L 349.07239 123.020866 
L 349.961321 125.386449 
L 352.628117 127.118282 
L 353.517048 129.938786 
L 354.40598 132.338881 
L 355.294912 132.426728 
L 356.183844 132.141226 
L 358.850639 131.444728 
L 362.406366 127.093183 
L 365.073161 127.711247 
L 365.962093 127.400647 
L 366.851025 127.676736 
L 367.739957 127.422608 
L 368.628888 126.776308 
L 371.295684 124.310328 
L 372.184615 122.340054 
L 373.073547 120.037218 
L 373.962479 118.779129 
L 374.851411 119.466215 
L 377.518206 120.194087 
L 379.296069 128.702659 
L 380.185001 132.429865 
L 381.073933 134.999378 
L 383.740728 138.155582 
L 384.62966 137.565754 
L 385.518592 137.327314 
L 386.407524 136.803371 
L 387.296455 135.824509 
L 389.963251 134.814273 
L 390.852182 135.316254 
L 391.741114 134.588382 
L 393.518978 133.835411 
L 396.185773 132.947533 
L 397.074705 131.178051 
L 397.963636 130.258799 
L 397.963636 130.258799 
" style="fill:none;stroke:#0000ff;stroke-linecap:square;stroke-width:0.5;"/>
   </g>
   <g id="line2d_49">
    <path clip-path="url(#p416db437f5)" d="M 68.169954 225.714621 
L 69.058886 225.559053 
L 69.947818 226.098885 
L 73.503545 227.773749 
L 74.392476 228.058646 
L 75.281408 227.489866 
L 78.837135 227.405045 
L 79.726067 225.778351 
L 80.614999 225.860691 
L 81.503931 225.790881 
L 82.392862 225.093681 
L 85.059658 227.718988 
L 85.948589 229.336217 
L 86.837521 232.807212 
L 87.726453 233.582819 
L 88.615385 235.636364 
L 91.28218 230.505937 
L 92.171112 218.383998 
L 93.060043 213.723597 
L 93.948975 204.311212 
L 94.837907 204.333751 
L 97.504702 205.588072 
L 98.393634 205.670759 
L 99.282566 203.636902 
L 100.171497 203.95319 
L 101.060429 206.244598 
L 103.727224 208.885821 
L 104.616156 211.942811 
L 105.505088 211.79438 
L 106.39402 212.229866 
L 107.282952 217.039003 
L 109.949747 220.000642 
L 110.838679 222.601734 
L 111.72761 224.472814 
L 112.616542 226.018037 
L 113.505474 226.094854 
L 116.172269 225.647678 
L 117.950133 227.243557 
L 118.839064 228.404736 
L 119.727996 228.711517 
L 122.394791 229.510377 
L 123.283723 225.861372 
L 124.172655 225.989774 
L 125.061587 227.39825 
L 128.617314 227.949767 
L 129.506245 226.893402 
L 131.284109 223.229683 
L 132.173041 223.390923 
L 134.839836 224.991563 
L 135.728768 225.385128 
L 136.6177 224.990242 
L 137.506631 224.966735 
L 138.395563 225.719793 
L 141.95129 224.893788 
L 143.729154 223.28493 
L 144.618085 223.790743 
L 147.284881 224.004722 
L 148.173812 223.735363 
L 149.062744 221.468856 
L 150.840608 218.340637 
L 153.507403 221.605335 
L 154.396335 222.982779 
L 155.285266 224.993761 
L 156.174198 226.300897 
L 157.06313 226.118331 
L 160.618857 226.10313 
L 161.507789 225.557509 
L 162.396721 226.031534 
L 163.285652 225.611628 
L 165.952448 223.81628 
L 166.841379 225.370112 
L 167.730311 224.044084 
L 169.508175 220.615541 
L 172.17497 213.822375 
L 173.063902 215.143713 
L 173.952833 213.945127 
L 174.841765 213.329175 
L 178.397492 215.4898 
L 179.286424 216.743034 
L 180.175356 216.804486 
L 181.064287 215.973413 
L 181.953219 216.307812 
L 184.620014 215.982015 
L 185.508946 216.880212 
L 186.397878 216.94867 
L 187.28681 218.774589 
L 188.175741 221.716804 
L 190.842537 221.65095 
L 191.731469 216.854318 
L 192.6204 209.534249 
L 193.509332 203.874176 
L 194.398264 206.819056 
L 197.065059 210.845482 
L 197.953991 215.415214 
L 198.842923 214.930633 
L 199.731854 214.306556 
L 200.620786 214.601808 
L 203.287581 217.091652 
L 204.176513 212.452639 
L 205.065445 210.881941 
L 205.954377 205.719244 
L 206.843308 201.429432 
L 209.510104 200.916898 
L 210.399035 203.015363 
L 212.176899 200.423493 
L 213.065831 199.916075 
L 215.732626 207.262923 
L 216.621558 206.248443 
L 217.51049 199.777635 
L 218.399421 188.391008 
L 219.288353 168.800592 
L 221.955148 167.914237 
L 222.84408 166.060412 
L 224.621944 168.25242 
L 228.177671 168.138591 
L 229.066602 170.749179 
L 229.955534 169.881763 
L 230.844466 168.454366 
L 235.289125 162.679471 
L 236.178056 162.641379 
L 237.066988 159.316096 
L 237.95592 160.001094 
L 243.28951 160.348587 
L 244.178442 159.765004 
L 246.845238 161.23961 
L 247.734169 160.906815 
L 249.512033 160.858067 
L 249.512033 160.2583 
L 250.400965 159.534897 
L 253.06776 160.046894 
L 253.956692 161.311518 
L 254.845623 162.00917 
L 255.734555 162.242925 
L 256.623487 164.844268 
L 260.179214 169.86139 
L 261.068146 165.461304 
L 261.957077 153.005241 
L 265.512804 143.454461 
L 266.401736 140.281588 
L 267.290668 140.234203 
L 268.1796 139.448737 
L 269.068531 141.830635 
L 271.735327 142.979139 
L 272.624259 146.542351 
L 273.51319 147.887476 
L 274.402122 147.316171 
L 275.291054 147.064591 
L 277.957849 147.189651 
L 279.735713 143.60649 
L 280.624644 140.540381 
L 281.513576 140.223681 
L 284.180371 143.643011 
L 285.069303 149.795985 
L 287.736098 154.678522 
L 290.402894 153.909146 
L 291.291825 146.872348 
L 292.180757 134.628413 
L 293.069689 133.248593 
L 296.625416 133.815679 
L 297.514348 134.119711 
L 298.403279 139.25897 
L 299.292211 142.858289 
L 300.181143 145.796008 
L 302.847938 147.301402 
L 303.73687 142.859351 
L 304.625802 142.997934 
L 305.514734 142.981631 
L 306.403665 145.201613 
L 309.070461 148.423846 
L 309.959392 150.86312 
L 310.848324 150.595383 
L 311.737256 148.511722 
L 312.626188 149.510651 
L 315.292983 149.919107 
L 316.181915 153.220503 
L 317.070846 152.928396 
L 321.515505 152.287015 
L 322.404437 149.191842 
L 323.293369 143.286126 
L 324.1823 143.46724 
L 325.071232 141.989491 
L 328.626959 141.865139 
L 329.515891 139.090999 
L 330.404823 138.046546 
L 331.293755 136.751675 
L 333.96055 137.089594 
L 334.849482 136.649606 
L 335.738413 134.238304 
L 336.627345 134.866048 
L 337.516277 134.515315 
L 341.072004 133.924899 
L 341.960936 131.07115 
L 342.849867 131.622521 
L 343.738799 129.761478 
L 346.405594 126.473304 
L 348.183458 125.235524 
L 349.07239 132.32081 
L 349.961321 136.604909 
L 352.628117 139.329297 
L 353.517048 139.690434 
L 354.40598 133.24384 
L 355.294912 133.187398 
L 356.183844 133.692323 
L 358.850639 134.52748 
L 359.739571 134.014929 
L 360.628503 133.224157 
L 361.517434 131.060138 
L 362.406366 129.770793 
L 365.073161 132.360119 
L 365.962093 132.21267 
L 366.851025 132.506727 
L 367.739957 132.428339 
L 368.628888 133.539426 
L 371.295684 130.835908 
L 372.184615 131.03302 
L 373.073547 127.14235 
L 373.962479 122.67123 
L 374.851411 125.595424 
L 377.518206 127.010548 
L 378.407138 139.089979 
L 379.296069 143.958264 
L 380.185001 146.169055 
L 381.073933 146.831925 
L 383.740728 139.105829 
L 384.62966 140.275506 
L 385.518592 140.164379 
L 386.407524 139.614827 
L 387.296455 139.785885 
L 389.963251 137.400996 
L 390.852182 138.715435 
L 392.630046 137.661849 
L 393.518978 138.102135 
L 396.185773 138.452588 
L 397.074705 135.11713 
L 397.963636 134.358603 
L 397.963636 134.358603 
" style="fill:none;stroke:#000000;stroke-linecap:square;stroke-width:0.5;"/>
   </g>
   <g id="patch_8">
    <path d="M 46.08 241.92 
L 46.08 103.68 
" style="fill:none;stroke:#000000;stroke-linecap:square;stroke-linejoin:miter;stroke-width:0.8;"/>
   </g>
   <g id="patch_9">
    <path d="M 414.72 241.92 
L 414.72 103.68 
" style="fill:none;stroke:#000000;stroke-linecap:square;stroke-linejoin:miter;stroke-width:0.8;"/>
   </g>
   <g id="patch_10">
    <path d="M 46.08 241.92 
L 414.72 241.92 
" style="fill:none;stroke:#000000;stroke-linecap:square;stroke-linejoin:miter;stroke-width:0.8;"/>
   </g>
   <g id="patch_11">
    <path d="M 46.08 103.68 
L 414.72 103.68 
" style="fill:none;stroke:#000000;stroke-linecap:square;stroke-linejoin:miter;stroke-width:0.8;"/>
   </g>
   <g id="text_14">
    <!-- Bollinger Bands -->
    <defs>
     <path d="M 9.421875 54.6875 
L 18.40625 54.6875 
L 18.40625 0 
L 9.421875 0 
z
M 9.421875 75.984375 
L 18.40625 75.984375 
L 18.40625 64.59375 
L 9.421875 64.59375 
z
" id="DejaVuSans-69"/>
     <path d="M 54.890625 33.015625 
L 54.890625 0 
L 45.90625 0 
L 45.90625 32.71875 
Q 45.90625 40.484375 42.875 44.328125 
Q 39.84375 48.1875 33.796875 48.1875 
Q 26.515625 48.1875 22.3125 43.546875 
Q 18.109375 38.921875 18.109375 30.90625 
L 18.109375 0 
L 9.078125 0 
L 9.078125 54.6875 
L 18.109375 54.6875 
L 18.109375 46.1875 
Q 21.34375 51.125 25.703125 53.5625 
Q 30.078125 56 35.796875 56 
Q 45.21875 56 50.046875 50.171875 
Q 54.890625 44.34375 54.890625 33.015625 
z
" id="DejaVuSans-6e"/>
    </defs>
    <g transform="translate(55.296 117.430594)scale(0.09 -0.09)">
     <use xlink:href="#DejaVuSans-42"/>
     <use x="68.603516" xlink:href="#DejaVuSans-6f"/>
     <use x="129.785156" xlink:href="#DejaVuSans-6c"/>
     <use x="157.568359" xlink:href="#DejaVuSans-6c"/>
     <use x="185.351562" xlink:href="#DejaVuSans-69"/>
     <use x="213.134766" xlink:href="#DejaVuSans-6e"/>
     <use x="276.513672" xlink:href="#DejaVuSans-67"/>
     <use x="339.990234" xlink:href="#DejaVuSans-65"/>
     <use x="401.513672" xlink:href="#DejaVuSans-72"/>
     <use x="442.626953" xlink:href="#DejaVuSans-20"/>
     <use x="474.414062" xlink:href="#DejaVuSans-42"/>
     <use x="543.017578" xlink:href="#DejaVuSans-61"/>
     <use x="604.296875" xlink:href="#DejaVuSans-6e"/>
     <use x="667.675781" xlink:href="#DejaVuSans-64"/>
     <use x="731.152344" xlink:href="#DejaVuSans-73"/>
    </g>
   </g>
  </g>
  <g id="axes_3">
   <g id="patch_12">
    <path d="M 46.08 311.04 
L 414.72 311.04 
L 414.72 241.92 
L 46.08 241.92 
z
" style="fill:#f6f6f6;"/>
   </g>
   <g id="matplotlib.axis_5">
    <g id="xtick_15">
     <g id="line2d_50">
      <path clip-path="url(#pf98860f3e4)" d="M 88.917868 311.04 
L 88.917868 241.92 
" style="fill:none;stroke:#bfbfbf;stroke-linecap:square;stroke-width:0.5;"/>
     </g>
     <g id="line2d_51">
      <g>
       <use style="stroke:#000000;stroke-width:0.8;" x="88.917868" xlink:href="#ma461cfc2d7" y="311.04"/>
      </g>
     </g>
     <g id="text_15">
      <!-- 1.500 -->
      <defs>
       <path d="M 10.6875 12.40625 
L 21 12.40625 
L 21 0 
L 10.6875 0 
z
" id="DejaVuSans-2e"/>
      </defs>
      <g transform="translate(63.085341 338.934502)rotate(-30)scale(0.1 -0.1)">
       <use xlink:href="#DejaVuSans-31"/>
       <use x="63.623047" xlink:href="#DejaVuSans-2e"/>
       <use x="95.410156" xlink:href="#DejaVuSans-35"/>
       <use x="159.033203" xlink:href="#DejaVuSans-30"/>
       <use x="222.65625" xlink:href="#DejaVuSans-30"/>
      </g>
     </g>
    </g>
    <g id="xtick_16">
     <g id="line2d_52">
      <path clip-path="url(#pf98860f3e4)" d="M 140.360678 311.04 
L 140.360678 241.92 
" style="fill:none;stroke:#bfbfbf;stroke-linecap:square;stroke-width:0.5;"/>
     </g>
     <g id="line2d_53">
      <g>
       <use style="stroke:#000000;stroke-width:0.8;" x="140.360678" xlink:href="#ma461cfc2d7" y="311.04"/>
      </g>
     </g>
     <g id="text_16">
      <!-- 1.505 -->
      <g transform="translate(114.528151 338.934502)rotate(-30)scale(0.1 -0.1)">
       <use xlink:href="#DejaVuSans-31"/>
       <use x="63.623047" xlink:href="#DejaVuSans-2e"/>
       <use x="95.410156" xlink:href="#DejaVuSans-35"/>
       <use x="159.033203" xlink:href="#DejaVuSans-30"/>
       <use x="222.65625" xlink:href="#DejaVuSans-35"/>
      </g>
     </g>
    </g>
    <g id="xtick_17">
     <g id="line2d_54">
      <path clip-path="url(#pf98860f3e4)" d="M 191.803488 311.04 
L 191.803488 241.92 
" style="fill:none;stroke:#bfbfbf;stroke-linecap:square;stroke-width:0.5;"/>
     </g>
     <g id="line2d_55">
      <g>
       <use style="stroke:#000000;stroke-width:0.8;" x="191.803488" xlink:href="#ma461cfc2d7" y="311.04"/>
      </g>
     </g>
     <g id="text_17">
      <!-- 1.510 -->
      <g transform="translate(165.970961 338.934502)rotate(-30)scale(0.1 -0.1)">
       <use xlink:href="#DejaVuSans-31"/>
       <use x="63.623047" xlink:href="#DejaVuSans-2e"/>
       <use x="95.410156" xlink:href="#DejaVuSans-35"/>
       <use x="159.033203" xlink:href="#DejaVuSans-31"/>
       <use x="222.65625" xlink:href="#DejaVuSans-30"/>
      </g>
     </g>
    </g>
    <g id="xtick_18">
     <g id="line2d_56">
      <path clip-path="url(#pf98860f3e4)" d="M 243.246299 311.04 
L 243.246299 241.92 
" style="fill:none;stroke:#bfbfbf;stroke-linecap:square;stroke-width:0.5;"/>
     </g>
     <g id="line2d_57">
      <g>
       <use style="stroke:#000000;stroke-width:0.8;" x="243.246299" xlink:href="#ma461cfc2d7" y="311.04"/>
      </g>
     </g>
     <g id="text_18">
      <!-- 1.515 -->
      <g transform="translate(217.413771 338.934502)rotate(-30)scale(0.1 -0.1)">
       <use xlink:href="#DejaVuSans-31"/>
       <use x="63.623047" xlink:href="#DejaVuSans-2e"/>
       <use x="95.410156" xlink:href="#DejaVuSans-35"/>
       <use x="159.033203" xlink:href="#DejaVuSans-31"/>
       <use x="222.65625" xlink:href="#DejaVuSans-35"/>
      </g>
     </g>
    </g>
    <g id="xtick_19">
     <g id="line2d_58">
      <path clip-path="url(#pf98860f3e4)" d="M 294.689109 311.04 
L 294.689109 241.92 
" style="fill:none;stroke:#bfbfbf;stroke-linecap:square;stroke-width:0.5;"/>
     </g>
     <g id="line2d_59">
      <g>
       <use style="stroke:#000000;stroke-width:0.8;" x="294.689109" xlink:href="#ma461cfc2d7" y="311.04"/>
      </g>
     </g>
     <g id="text_19">
      <!-- 1.520 -->
      <defs>
       <path d="M 19.1875 8.296875 
L 53.609375 8.296875 
L 53.609375 0 
L 7.328125 0 
L 7.328125 8.296875 
Q 12.9375 14.109375 22.625 23.890625 
Q 32.328125 33.6875 34.8125 36.53125 
Q 39.546875 41.84375 41.421875 45.53125 
Q 43.3125 49.21875 43.3125 52.78125 
Q 43.3125 58.59375 39.234375 62.25 
Q 35.15625 65.921875 28.609375 65.921875 
Q 23.96875 65.921875 18.8125 64.3125 
Q 13.671875 62.703125 7.8125 59.421875 
L 7.8125 69.390625 
Q 13.765625 71.78125 18.9375 73 
Q 24.125 74.21875 28.421875 74.21875 
Q 39.75 74.21875 46.484375 68.546875 
Q 53.21875 62.890625 53.21875 53.421875 
Q 53.21875 48.921875 51.53125 44.890625 
Q 49.859375 40.875 45.40625 35.40625 
Q 44.1875 33.984375 37.640625 27.21875 
Q 31.109375 20.453125 19.1875 8.296875 
z
" id="DejaVuSans-32"/>
      </defs>
      <g transform="translate(268.856581 338.934502)rotate(-30)scale(0.1 -0.1)">
       <use xlink:href="#DejaVuSans-31"/>
       <use x="63.623047" xlink:href="#DejaVuSans-2e"/>
       <use x="95.410156" xlink:href="#DejaVuSans-35"/>
       <use x="159.033203" xlink:href="#DejaVuSans-32"/>
       <use x="222.65625" xlink:href="#DejaVuSans-30"/>
      </g>
     </g>
    </g>
    <g id="xtick_20">
     <g id="line2d_60">
      <path clip-path="url(#pf98860f3e4)" d="M 346.131919 311.04 
L 346.131919 241.92 
" style="fill:none;stroke:#bfbfbf;stroke-linecap:square;stroke-width:0.5;"/>
     </g>
     <g id="line2d_61">
      <g>
       <use style="stroke:#000000;stroke-width:0.8;" x="346.131919" xlink:href="#ma461cfc2d7" y="311.04"/>
      </g>
     </g>
     <g id="text_20">
      <!-- 1.525 -->
      <g transform="translate(320.299391 338.934502)rotate(-30)scale(0.1 -0.1)">
       <use xlink:href="#DejaVuSans-31"/>
       <use x="63.623047" xlink:href="#DejaVuSans-2e"/>
       <use x="95.410156" xlink:href="#DejaVuSans-35"/>
       <use x="159.033203" xlink:href="#DejaVuSans-32"/>
       <use x="222.65625" xlink:href="#DejaVuSans-35"/>
      </g>
     </g>
    </g>
    <g id="xtick_21">
     <g id="line2d_62">
      <path clip-path="url(#pf98860f3e4)" d="M 397.574729 311.04 
L 397.574729 241.92 
" style="fill:none;stroke:#bfbfbf;stroke-linecap:square;stroke-width:0.5;"/>
     </g>
     <g id="line2d_63">
      <g>
       <use style="stroke:#000000;stroke-width:0.8;" x="397.574729" xlink:href="#ma461cfc2d7" y="311.04"/>
      </g>
     </g>
     <g id="text_21">
      <!-- 1.530 -->
      <g transform="translate(371.742201 338.934502)rotate(-30)scale(0.1 -0.1)">
       <use xlink:href="#DejaVuSans-31"/>
       <use x="63.623047" xlink:href="#DejaVuSans-2e"/>
       <use x="95.410156" xlink:href="#DejaVuSans-35"/>
       <use x="159.033203" xlink:href="#DejaVuSans-33"/>
       <use x="222.65625" xlink:href="#DejaVuSans-30"/>
      </g>
     </g>
    </g>
    <g id="text_22">
     <!-- 1e9 -->
     <g transform="translate(395.841875 351.334002)scale(0.1 -0.1)">
      <use xlink:href="#DejaVuSans-31"/>
      <use x="63.623047" xlink:href="#DejaVuSans-65"/>
      <use x="125.146484" xlink:href="#DejaVuSans-39"/>
     </g>
    </g>
   </g>
   <g id="matplotlib.axis_6">
    <g id="ytick_8">
     <g id="line2d_64">
      <path clip-path="url(#pf98860f3e4)" d="M 46.08 283.923422 
L 414.72 283.923422 
" style="fill:none;stroke:#bfbfbf;stroke-linecap:square;stroke-width:0.5;"/>
     </g>
     <g id="line2d_65">
      <g>
       <use style="stroke:#000000;stroke-width:0.8;" x="46.08" xlink:href="#me897e9db0a" y="283.923422"/>
      </g>
     </g>
     <g id="text_23">
      <!-- 20 -->
      <g transform="translate(26.355 287.722641)scale(0.1 -0.1)">
       <use xlink:href="#DejaVuSans-32"/>
       <use x="63.623047" xlink:href="#DejaVuSans-30"/>
      </g>
     </g>
    </g>
    <g id="ytick_9">
     <g id="line2d_66">
      <path clip-path="url(#pf98860f3e4)" d="M 46.08 255.101358 
L 414.72 255.101358 
" style="fill:none;stroke:#bfbfbf;stroke-linecap:square;stroke-width:0.5;"/>
     </g>
     <g id="line2d_67">
      <g>
       <use style="stroke:#000000;stroke-width:0.8;" x="46.08" xlink:href="#me897e9db0a" y="255.101358"/>
      </g>
     </g>
     <g id="text_24">
      <!-- 40 -->
      <g transform="translate(26.355 258.900577)scale(0.1 -0.1)">
       <use xlink:href="#DejaVuSans-34"/>
       <use x="63.623047" xlink:href="#DejaVuSans-30"/>
      </g>
     </g>
    </g>
   </g>
   <g id="line2d_68">
    <path clip-path="url(#pf98860f3e4)" d="M 87.726453 292.330765 
L 88.615385 281.531684 
L 91.28218 272.5299 
L 92.171112 265.808314 
L 93.060043 260.221795 
L 93.948975 257.823505 
L 94.837907 256.641971 
L 97.504702 256.396995 
L 98.393634 256.922361 
L 99.282566 257.658004 
L 100.171497 258.827771 
L 101.060429 260.93802 
L 103.727224 263.560761 
L 105.505088 268.691151 
L 106.39402 271.326929 
L 107.282952 273.532062 
L 109.949747 278.320535 
L 110.838679 283.203835 
L 111.72761 279.730306 
L 112.616542 275.37279 
L 113.505474 272.868244 
L 116.172269 272.403362 
L 117.950133 270.570085 
L 118.839064 270.213833 
L 119.727996 269.30951 
L 122.394791 268.753775 
L 123.283723 268.923478 
L 124.172655 270.650533 
L 125.061587 273.97526 
L 128.617314 277.933701 
L 130.395177 284.708228 
L 131.284109 287.249371 
L 132.173041 292.717675 
L 137.506631 302.062915 
L 138.395563 301.825475 
L 141.95129 301.925074 
L 142.840222 303.174432 
L 143.729154 303.105316 
L 144.618085 302.695723 
L 147.284881 300.882258 
L 148.173812 299.526127 
L 149.062744 299.376637 
L 149.951676 297.826853 
L 150.840608 297.333738 
L 154.396335 297.332929 
L 155.285266 297.174561 
L 156.174198 296.57296 
L 157.06313 296.142456 
L 160.618857 296.557392 
L 161.507789 296.90377 
L 162.396721 297.467464 
L 163.285652 297.776411 
L 165.952448 297.809243 
L 166.841379 295.904552 
L 169.508175 291.946325 
L 172.17497 290.385229 
L 173.063902 287.515366 
L 173.952833 285.724894 
L 174.841765 284.782921 
L 178.397492 284.835616 
L 179.286424 284.665243 
L 181.064287 285.338175 
L 181.953219 286.490446 
L 184.620014 288.906394 
L 186.397878 293.847628 
L 187.28681 295.433493 
L 188.175741 292.584055 
L 190.842537 289.266592 
L 191.731469 289.5699 
L 192.6204 288.075465 
L 193.509332 287.255604 
L 194.398264 287.180235 
L 197.065059 287.388296 
L 197.953991 287.060768 
L 198.842923 286.851926 
L 199.731854 286.849514 
L 200.620786 286.535935 
L 203.287581 284.173668 
L 204.176513 282.909034 
L 205.954377 283.210606 
L 206.843308 284.583625 
L 209.510104 285.568671 
L 210.399035 286.497313 
L 211.287967 288.343521 
L 212.176899 288.105706 
L 213.065831 285.078323 
L 215.732626 270.65474 
L 216.621558 261.642495 
L 217.51049 254.476481 
L 218.399421 248.966067 
L 219.288353 245.943811 
L 221.955148 245.061818 
L 222.84408 246.949988 
L 223.733012 248.041345 
L 224.621944 251.077487 
L 225.510875 253.469816 
L 228.177671 254.462171 
L 229.066602 255.151519 
L 230.844466 261.374793 
L 231.733398 265.334438 
L 235.289125 270.643049 
L 236.178056 275.009516 
L 237.066988 281.702746 
L 237.95592 290.541148 
L 240.622715 301.155996 
L 241.511647 301.288507 
L 242.400579 301.623675 
L 244.178442 301.661064 
L 246.845238 300.743667 
L 247.734169 300.688331 
L 248.623101 301.144813 
L 249.512033 302.281159 
L 249.512033 303.891308 
L 250.400965 305.035959 
L 253.06776 307.707083 
L 253.956692 307.551142 
L 254.845623 307.898182 
L 255.734555 307.890421 
L 256.623487 304.794545 
L 259.290282 296.820989 
L 260.179214 285.673077 
L 261.068146 280.224122 
L 261.957077 278.836777 
L 265.512804 277.331563 
L 266.401736 275.135914 
L 267.290668 274.559956 
L 268.1796 274.15266 
L 269.068531 274.911589 
L 271.735327 275.04775 
L 272.624259 276.051687 
L 273.51319 277.393067 
L 274.402122 278.507303 
L 275.291054 279.893973 
L 277.957849 281.971231 
L 279.735713 284.779288 
L 280.624644 288.7911 
L 281.513576 291.687503 
L 284.180371 296.967776 
L 285.069303 297.302473 
L 285.958235 296.202849 
L 286.847167 297.933553 
L 287.736098 298.434622 
L 291.291825 297.383303 
L 292.180757 297.3766 
L 293.069689 296.91436 
L 296.625416 296.756427 
L 297.514348 296.153012 
L 298.403279 296.140148 
L 299.292211 296.875279 
L 300.181143 297.1031 
L 303.73687 296.781956 
L 305.514734 296.677704 
L 306.403665 296.065845 
L 309.070461 295.008123 
L 309.959392 294.172167 
L 310.848324 294.745139 
L 311.737256 294.761962 
L 312.626188 293.587668 
L 315.292983 293.350481 
L 316.181915 294.29615 
L 317.070846 294.963784 
L 321.515505 296.379938 
L 323.293369 298.766776 
L 324.1823 301.137825 
L 325.071232 300.90166 
L 327.738027 299.743407 
L 328.626959 298.82866 
L 329.515891 298.366402 
L 330.404823 297.599597 
L 331.293755 296.578534 
L 333.96055 295.423681 
L 334.849482 294.880297 
L 335.738413 295.087895 
L 336.627345 294.759553 
L 337.516277 294.772713 
L 340.183072 295.310261 
L 341.072004 296.170629 
L 341.960936 297.418487 
L 342.849867 295.666637 
L 343.738799 295.961108 
L 348.183458 294.663591 
L 349.07239 296.124768 
L 349.961321 296.973407 
L 352.628117 297.819385 
L 353.517048 297.950285 
L 354.40598 298.264193 
L 355.294912 298.913778 
L 356.183844 299.293103 
L 359.739571 299.707861 
L 360.628503 299.966059 
L 361.517434 300.407727 
L 365.073161 299.98675 
L 365.962093 299.997878 
L 367.739957 300.346678 
L 368.628888 300.601349 
L 371.295684 299.789835 
L 373.073547 298.083308 
L 373.962479 297.716949 
L 374.851411 298.145249 
L 377.518206 298.581445 
L 381.073933 293.635828 
L 384.62966 291.651413 
L 385.518592 290.953598 
L 386.407524 290.44211 
L 387.296455 290.437583 
L 389.963251 290.289945 
L 390.852182 289.764091 
L 392.630046 289.702572 
L 393.518978 290.460236 
L 396.185773 291.732854 
L 397.074705 294.17935 
L 397.963636 296.986836 
L 397.963636 296.986836 
" style="fill:none;stroke:#ff0000;stroke-linecap:square;"/>
   </g>
   <g id="patch_13">
    <path d="M 46.08 311.04 
L 46.08 241.92 
" style="fill:none;stroke:#000000;stroke-linecap:square;stroke-linejoin:miter;stroke-width:0.8;"/>
   </g>
   <g id="patch_14">
    <path d="M 414.72 311.04 
L 414.72 241.92 
" style="fill:none;stroke:#000000;stroke-linecap:square;stroke-linejoin:miter;stroke-width:0.8;"/>
   </g>
   <g id="patch_15">
    <path d="M 46.08 311.04 
L 414.72 311.04 
" style="fill:none;stroke:#000000;stroke-linecap:square;stroke-linejoin:miter;stroke-width:0.8;"/>
   </g>
   <g id="patch_16">
    <path d="M 46.08 241.92 
L 414.72 241.92 
" style="fill:none;stroke:#000000;stroke-linecap:square;stroke-linejoin:miter;stroke-width:0.8;"/>
   </g>
   <g id="text_25">
    <!-- Bollinger Bandwidth -->
    <defs>
     <path d="M 4.203125 54.6875 
L 13.1875 54.6875 
L 24.421875 12.015625 
L 35.59375 54.6875 
L 46.1875 54.6875 
L 57.421875 12.015625 
L 68.609375 54.6875 
L 77.59375 54.6875 
L 63.28125 0 
L 52.6875 0 
L 40.921875 44.828125 
L 29.109375 0 
L 18.5 0 
z
" id="DejaVuSans-77"/>
    </defs>
    <g transform="translate(55.296 252.214594)scale(0.09 -0.09)">
     <use xlink:href="#DejaVuSans-42"/>
     <use x="68.603516" xlink:href="#DejaVuSans-6f"/>
     <use x="129.785156" xlink:href="#DejaVuSans-6c"/>
     <use x="157.568359" xlink:href="#DejaVuSans-6c"/>
     <use x="185.351562" xlink:href="#DejaVuSans-69"/>
     <use x="213.134766" xlink:href="#DejaVuSans-6e"/>
     <use x="276.513672" xlink:href="#DejaVuSans-67"/>
     <use x="339.990234" xlink:href="#DejaVuSans-65"/>
     <use x="401.513672" xlink:href="#DejaVuSans-72"/>
     <use x="442.626953" xlink:href="#DejaVuSans-20"/>
     <use x="474.414062" xlink:href="#DejaVuSans-42"/>
     <use x="543.017578" xlink:href="#DejaVuSans-61"/>
     <use x="604.296875" xlink:href="#DejaVuSans-6e"/>
     <use x="667.675781" xlink:href="#DejaVuSans-64"/>
     <use x="731.152344" xlink:href="#DejaVuSans-77"/>
     <use x="812.939453" xlink:href="#DejaVuSans-69"/>
     <use x="840.722656" xlink:href="#DejaVuSans-64"/>
     <use x="904.199219" xlink:href="#DejaVuSans-74"/>
     <use x="943.408203" xlink:href="#DejaVuSans-68"/>
    </g>
   </g>
  </g>
 </g>
 <defs>
  <clipPath id="p50b861e0d1">
   <rect height="69.12" width="368.64" x="46.08" y="34.56"/>
  </clipPath>
  <clipPath id="p416db437f5">
   <rect height="138.24" width="368.64" x="46.08" y="103.68"/>
  </clipPath>
  <clipPath id="pf98860f3e4">
   <rect height="69.12" width="368.64" x="46.08" y="241.92"/>
  </clipPath>
 </defs>
</svg>
